<svg xml:space="preserve" style="enable-background:new 0 0 42.7 32;" viewBox="0 0 42.7 32" y="0px" x="0px" xmlns:xlink="http://www.w3.org/1999/xlink" xmlns="http://www.w3.org/2000/svg" id="Layer_1" version="1.1">
<style type="text/css">
	.st0{fill:#4285F4;}
	.st1{fill:#34A853;}
	.st2{fill:#FBBC04;}
	.st3{fill-rule:evenodd;clip-rule:evenodd;fill:#EA4335;}
	.st4{fill:#C5221F;}
</style>
<g>
	<g>
		<path d="M2.9,32h6.8V15.5L0,8.2v20.8C0,30.7,1.3,32,2.9,32L2.9,32z" class="st0"></path>
		<path d="M33,32h6.8c1.6,0,2.9-1.3,2.9-2.9V8.2L33,15.5V32z" class="st1"></path>
		<path d="M33,2.9v12.6l9.7-7.3V4.4c0-3.6-4.1-5.6-7-3.5L33,2.9z" class="st2"></path>
	</g>
	<path d="M9.7,15.5V2.9l11.6,8.7L33,2.9v12.6l-11.6,8.7L9.7,15.5z" class="st3"></path>
	<path d="M0,4.4v3.9l9.7,7.3V2.9L7,0.9C4.1-1.3,0,0.8,0,4.4L0,4.4z" class="st4"></path>
</g>
</svg>
