<svg xml:space="preserve" style="enable-background:new 0 0 32 32;" viewBox="0 0 32 32" y="0px" x="0px" xmlns:xlink="http://www.w3.org/1999/xlink" xmlns="http://www.w3.org/2000/svg" id="Layer_1" version="1.1">
<style type="text/css">
	.st0{fill:url(#SVGID_1_);}
</style>
<g>
	
		<linearGradient gradientTransform="matrix(5.0206 0 0 -5.0206 7947.3232 -4547.3784)" y2="-911.189" x2="-1577.5106" y1="-906.682" x1="-1582.0176" gradientUnits="userSpaceOnUse" id="SVGID_1_">
		<stop style="stop-color:#2489BE" offset="0"></stop>
		<stop style="stop-color:#0575B3" offset="1"></stop>
	</linearGradient>
	<path d="M16,0C7.2,0,0,7.2,0,16s7.2,16,16,16s16-7.2,16-16C32,7.2,24.8,0,16,0z M11.7,23.7H8.2V12.4h3.5V23.7z
		 M10,10.9c-1.1,0-2.1-0.9-2.1-2.1c0-1.2,0.9-2.1,2.1-2.1S12,7.6,12,8.8C12,10,11.1,10.9,10,10.9z M24.9,23.7h-3.5v-6
		c0-1.6-0.6-2.5-1.9-2.5c-1.4,0-2.1,0.9-2.1,2.5v6H14V12.4h3.4v1.5c0,0,1-1.9,3.4-1.9c2.4,0,4.1,1.5,4.1,4.5L24.9,23.7L24.9,23.7z" class="st0"></path>
</g>
</svg>
