<?xml version="1.0" encoding="utf-8"?>
<!-- Generator: Adobe Illustrator 25.4.0, SVG Export Plug-In . SVG Version: 6.00 Build 0)  -->
<svg version="1.1" id="Layer_1" xmlns="http://www.w3.org/2000/svg" xmlns:xlink="http://www.w3.org/1999/xlink" x="0px" y="0px"
	 viewBox="0 0 27.4 32" style="enable-background:new 0 0 27.4 32;" xml:space="preserve">
<style type="text/css">
	.st0{fill:#00599C;}
	.st1{fill:#004482;}
	.st2{fill:#659AD2;}
	.st3{fill:#FFFFFF;}
</style>
<g>
	<path class="st0" d="M27.1,24c0.2-0.4,0.3-0.8,0.3-1.2V9.2c0-0.4-0.1-0.8-0.3-1.2l-13.4,8L27.1,24z"/>
	<path class="st1" d="M14.9,31.7l11.3-6.8c0.3-0.2,0.6-0.5,0.8-0.9l-13.4-8L0.4,24c0.2,0.4,0.5,0.7,0.8,0.9l11.3,6.8
		C13.2,32.1,14.3,32.1,14.9,31.7z"/>
	<path class="st2" d="M27.1,8c-0.2-0.4-0.5-0.7-0.8-0.9L14.9,0.3c-0.7-0.4-1.7-0.4-2.4,0L1.2,7.1C0.5,7.5,0,8.4,0,9.2v13.6
		c0,0.4,0.1,0.8,0.3,1.2l13.4-8L27.1,8z"/>
	<path class="st3" d="M13.8,25.1c-5.1,0-9.2-4.1-9.2-9.1s4.1-9.1,9.2-9.1c3.2,0,6.2,1.7,7.9,4.4l-3.9,2.4c-0.8-1.4-2.3-2.2-3.9-2.2
		c-2.5,0-4.6,2.1-4.6,4.6s2.1,4.6,4.6,4.6c1.6,0,3.1-0.8,3.9-2.2l3.9,2.3C20,23.5,17,25.1,13.8,25.1z"/>
	<path class="st3" d="M21.7,15.4h-1.1v-1.1h-1.1v1.1h-1.1v1.1h1.1v1.1h1.1v-1.1h1.1V15.4z"/>
	<path class="st3" d="M26.3,15.4h-1.1v-1.1H24v1.1h-1.1v1.1H24v1.1h1.1v-1.1h1.1V15.4z"/>
</g>
</svg>
