<svg xml:space="preserve" style="enable-background:new 0 0 32.8 32;" viewBox="0 0 32.8 32" y="0px" x="0px" xmlns:xlink="http://www.w3.org/1999/xlink" xmlns="http://www.w3.org/2000/svg" id="Layer_1" version="1.1">
<style type="text/css">
	.st0{fill:#FF7E1B;}
	.st1{fill:#41322A;}
</style>
<g id="Layer_2_00000162348393374618799940000018181330504680121491_">
	<g id="Layer_1-2">
		<path d="M32.8,5.8v20.4c0,3.2-2.6,5.8-5.8,5.8c0,0,0,0,0,0H5.8c-1.5,0-3-0.6-4.1-1.7C0.6,29.2,0,27.7,0,26.2V5.8
			c0-1.5,0.6-3,1.7-4.1C2.8,0.6,4.3,0,5.8,0H27c1.5,0,3,0.6,4.1,1.7C32.2,2.8,32.8,4.3,32.8,5.8z M31.4,25.7V6.3
			c0-1.3-0.5-2.6-1.4-3.5c-0.9-1-2.2-1.5-3.5-1.5H6.3C5,1.3,3.7,1.9,2.8,2.8C1.9,3.7,1.3,5,1.4,6.3v19.3c0,1.3,0.5,2.6,1.5,3.5
			c0.9,0.9,2.2,1.5,3.5,1.4h20.2c1.3,0,2.6-0.5,3.5-1.4C30.9,28.3,31.4,27,31.4,25.7z" class="st0"></path>
		<path d="M31.4,6.3v19.3c0,1.3-0.5,2.6-1.5,3.5c-0.9,0.9-2.2,1.5-3.5,1.4H6.3c-1.3,0-2.6-0.5-3.5-1.5
			c-1-0.9-1.5-2.2-1.5-3.5V6.3c0-1.3,0.5-2.6,1.5-3.5C3.7,1.9,5,1.3,6.3,1.4h20.1c1.3,0,2.6,0.5,3.5,1.5C30.9,3.7,31.5,5,31.4,6.3z
			 M25.2,24.1V12.2c0-0.1-0.1-0.2-0.2-0.2h-2.4c-0.1,0-0.2,0.1-0.2,0.2l0,11.9c0,0.1,0.1,0.2,0.2,0.2H25c0.1,0,0.1,0,0.2,0
			C25.2,24.2,25.2,24.2,25.2,24.1L25.2,24.1z M25.4,8.7c0-0.9-0.5-1.4-1.5-1.5c-0.4,0-0.8,0.1-1.1,0.4c-0.3,0.3-0.5,0.7-0.4,1.1
			c0,1,0.5,1.5,1.5,1.5c0.4,0,0.8-0.1,1.1-0.4C25.2,9.6,25.4,9.2,25.4,8.7L25.4,8.7z M20.1,24.3c0.1,0,0.2-0.1,0.1-0.2L15.4,7.8
			c0,0,0-0.1,0-0.1c0,0-0.1,0-0.1,0H12c-0.1,0-0.1,0-0.1,0.1c0,0.4,0,0.6,0,0.8c0,0.2-0.1,0.3-0.1,0.5l-4.3,15c0,0.1,0,0.1,0,0.2
			c0,0,0.1,0.1,0.2,0.1h2.2c0.1,0,0.1,0,0.2,0c0,0,0.1-0.1,0.1-0.1l1.2-4.5h4.8l1.2,4.6c0,0.1,0.1,0.2,0.3,0.1L20.1,24.3z" class="st1"></path>
		<path d="M25.2,12.2v11.9c0,0,0,0.1,0,0.1c0,0-0.1,0-0.2,0h-2.3c-0.1,0-0.2-0.1-0.2-0.2l0-11.9c0-0.1,0-0.2,0.2-0.2H25
			C25.1,12,25.2,12,25.2,12.2z" class="st0"></path>
		<path d="M23.8,7.2c1,0.1,1.5,0.6,1.5,1.5c0,0.4-0.1,0.9-0.4,1.1c-0.3,0.3-0.7,0.4-1.1,0.4c-1,0-1.5-0.6-1.5-1.6
			c0-0.4,0.1-0.8,0.4-1.1C23,7.3,23.4,7.2,23.8,7.2z" class="st0"></path>
		<path d="M20.2,24.1c0.1,0.1,0,0.2-0.1,0.2h-2.5c-0.1,0-0.2-0.1-0.3-0.1l-1.2-4.6h-4.8l-1.2,4.5c0,0,0,0.1-0.1,0.1
			c0,0-0.1,0-0.2,0H7.6c-0.1,0-0.1,0-0.2-0.1c0-0.1,0-0.1,0-0.2l4.3-15c0-0.2,0.1-0.3,0.1-0.5c0-0.2,0-0.4,0-0.8
			c0-0.1,0.1-0.1,0.1-0.1h3.2c0,0,0.1,0,0.1,0c0,0,0,0.1,0,0.1L20.2,24.1z M11.9,17.2h3.6c-0.1-0.5-0.3-1.2-0.5-2
			c-0.2-0.9-0.5-1.8-0.7-2.7c-0.2-0.9-0.4-1.7-0.6-2.4h0c-0.2,0.9-0.4,2-0.8,3.3C12.5,14.7,12.2,15.9,11.9,17.2z" class="st0"></path>
		<path d="M15.4,17.2h-3.6c0.3-1.2,0.7-2.5,1-3.8c0.3-1.3,0.6-2.4,0.7-3.3h0c0.1,0.6,0.3,1.4,0.6,2.4
			c0.2,0.9,0.5,1.8,0.7,2.7C15.1,16,15.3,16.6,15.4,17.2z" class="st1"></path>
	</g>
</g>
</svg>
