<svg xml:space="preserve" style="enable-background:new 0 0 32.8 32;" viewBox="0 0 32.8 32" y="0px" x="0px" xmlns:xlink="http://www.w3.org/1999/xlink" xmlns="http://www.w3.org/2000/svg" id="Layer_1" version="1.1">
<style type="text/css">
	.st0{fill:#FF2BC2;}
	.st1{fill:#2E001E;}
</style>
<g id="Layer_2_00000145750894508278570420000015680771581279315372_">
	<g id="Layer_1-2">
		<path d="M27,0c1.5,0,3,0.6,4.1,1.7c1.1,1.1,1.7,2.6,1.7,4.1v20.4c0,3.2-2.6,5.8-5.8,5.8c0,0,0,0,0,0H5.8
			c-1.5,0-3-0.6-4.1-1.7C0.6,29.2,0,27.7,0,26.2V5.8c0-1.5,0.6-3,1.7-4.1C2.8,0.6,4.3,0,5.8,0H27z M31.4,25.7V6.3
			c0-1.3-0.5-2.6-1.4-3.5c-0.9-1-2.2-1.5-3.5-1.5H6.3C5,1.3,3.7,1.9,2.8,2.8C1.9,3.7,1.3,5,1.4,6.3v19.3c0,1.3,0.5,2.6,1.5,3.5
			c0.9,0.9,2.2,1.5,3.5,1.4h20.2c1.3,0,2.6-0.5,3.5-1.4C30.9,28.3,31.4,27,31.4,25.7z" class="st0"></path>
		<path d="M31.4,6.3v19.3c0,1.3-0.5,2.6-1.5,3.5c-0.9,0.9-2.2,1.5-3.5,1.4H6.3c-1.3,0-2.6-0.5-3.5-1.5
			c-1-0.9-1.5-2.2-1.5-3.5V6.3c0-1.3,0.5-2.6,1.5-3.5C3.7,1.9,5,1.3,6.3,1.4h20.1c1.3,0,2.6,0.5,3.5,1.5C30.9,3.7,31.5,5,31.4,6.3z
			 M26.5,22.1c0,0,0-0.1,0-0.1c0-0.5-0.1-1-0.1-1.3V8.1c0,0,0-0.1,0-0.1c0,0-0.1,0-0.1,0h-2.2c0,0-0.1,0-0.1,0c0,0,0,0.1,0,0.1v3.5
			c-0.1,0-0.2,0-0.3,0c-0.1,0-0.2,0-0.4,0c-1.7,0-3,0.5-4,1.6s-1.4,2.4-1.4,4c0,1.9,0.5,3.3,1.4,4.2c1,0.9,2.2,1.4,3.7,1.4
			C24.2,22.9,25.4,22.6,26.5,22.1C26.5,22.1,26.5,22.1,26.5,22.1L26.5,22.1z M17.1,22.7c0-0.1,0-0.1,0-0.2l-3.8-7.4l3.6-6.9
			c0.1-0.1,0-0.2-0.1-0.2h-2.2c-0.1,0-0.1,0-0.1,0c0,0-0.1,0.1-0.1,0.1v0l-0.7,1.5c-0.6,1.3-1.2,2.6-1.8,3.9h0
			c-0.6-1.3-1.2-2.7-1.9-4c-0.2-0.5-0.5-1-0.7-1.4c0-0.1,0-0.1-0.1-0.1C9.1,8,9,8,9,8H6.6c0,0-0.1,0-0.1,0.1c0,0,0,0.1,0,0.1
			l3.6,7.2l-3.7,7.2c0,0,0,0.1,0,0.1c0,0,0,0.1,0.1,0.1h2.3c0.1,0,0.2-0.1,0.2-0.1c0.9-1.9,1.8-3.7,2.6-5.6h0
			c0.9,1.9,1.8,3.8,2.7,5.6c0,0.1,0.1,0.1,0.1,0.1c0.1,0,0.1,0,0.2,0H17C17,22.8,17.1,22.8,17.1,22.7L17.1,22.7z" class="st1"></path>
		<path d="M26.5,21.9c0,0,0,0.1,0,0.1c0,0,0,0-0.1,0.1c-1.1,0.5-2.3,0.8-3.5,0.8c-1.5,0-2.7-0.5-3.7-1.4
			c-0.9-0.9-1.4-2.3-1.4-4.2c0-1.6,0.5-2.9,1.4-4c1-1.1,2.3-1.7,4-1.6c0.1,0,0.3,0,0.4,0s0.2,0,0.3,0V8.2c0,0,0-0.1,0-0.1
			c0,0,0.1,0,0.1,0h2.2c0,0,0.1,0,0.1,0c0,0,0,0,0,0.1v12.5C26.5,21,26.5,21.4,26.5,21.9z M24,20.6l0-6.8c-0.3-0.1-0.5-0.1-0.8-0.1
			c-1.9,0.1-2.9,1.3-2.9,3.5c0,1.3,0.3,2.2,0.8,2.7c0.5,0.5,1.2,0.8,1.9,0.8C23.4,20.8,23.7,20.7,24,20.6z" class="st0"></path>
		<path d="M24,13.9l0,6.8c-0.3,0.1-0.6,0.2-0.9,0.1c-0.7,0-1.4-0.3-1.9-0.8c-0.5-0.5-0.8-1.4-0.8-2.7
			c0-2.2,1-3.4,2.9-3.5C23.5,13.7,23.8,13.8,24,13.9z" class="st1"></path>
		<path d="M17,22.5c0,0,0,0.1,0,0.2c0,0-0.1,0.1-0.1,0.1h-2.4c-0.1,0-0.1,0-0.2,0c0,0-0.1-0.1-0.1-0.1
			c-0.9-1.8-1.8-3.7-2.7-5.6h0c-0.8,1.9-1.7,3.8-2.6,5.6c0,0.1-0.1,0.2-0.2,0.1H6.5c-0.1,0-0.1,0-0.1-0.1c0,0,0-0.1,0-0.1l3.7-7.2
			L6.5,8.2c0,0,0-0.1,0-0.1C6.6,8,6.6,8,6.6,8H9C9,8,9.1,8,9.1,8c0,0,0.1,0.1,0.1,0.1c0.2,0.5,0.5,1,0.7,1.4c0.6,1.3,1.3,2.6,1.9,4
			h0c0.6-1.3,1.2-2.6,1.8-3.9l0.7-1.5v0c0,0,0-0.1,0.1-0.1c0,0,0.1,0,0.1,0h2.2c0.1,0,0.1,0.1,0.1,0.2l-3.6,6.9L17,22.5z" class="st0"></path>
	</g>
</g>
</svg>
