<svg xml:space="preserve" style="enable-background:new 0 0 28.4 32;" viewBox="0 0 28.4 32" y="0px" x="0px" xmlns:xlink="http://www.w3.org/1999/xlink" xmlns="http://www.w3.org/2000/svg" id="Layer_1" version="1.1">
<style type="text/css">
	.st0{fill:#A179DC;}
	.st1{fill:#280068;}
	.st2{fill:#390091;}
	.st3{fill:#FFFFFF;}
</style>
<g>
	<path d="M28.2,9c0-0.5-0.1-1-0.3-1.4c-0.2-0.4-0.6-0.7-1-1c-3.8-2.2-7.6-4.4-11.4-6.6c-1-0.6-2-0.6-3,0
		C11,1,3.4,5.3,1.2,6.6C0.2,7.1-0.2,8-0.2,9c0,4.4,0,8.8,0,13.2c0,0.5,0.1,1,0.3,1.4c0.2,0.4,0.6,0.8,1,1c2.3,1.3,9.8,5.6,11.3,6.5
		c1,0.6,2,0.6,3,0c3.8-2.2,7.6-4.4,11.4-6.6c0.5-0.3,0.8-0.6,1-1c0.2-0.4,0.3-0.9,0.3-1.4C28.2,22.2,28.2,13.4,28.2,9" class="st0"></path>
	<path d="M14.1,15.6l-13.9,8c0.2,0.4,0.6,0.8,1,1c2.3,1.3,9.8,5.6,11.3,6.5c1,0.6,2,0.6,3,0c3.8-2.2,7.6-4.4,11.4-6.6
		c0.5-0.3,0.8-0.6,1-1L14.1,15.6" class="st1"></path>
	<path d="M28.2,9c0-0.5-0.1-1-0.3-1.4l-13.8,8l13.9,8c0.2-0.4,0.3-0.9,0.3-1.4C28.2,22.2,28.2,13.4,28.2,9" class="st2"></path>
	<path d="M22.3,12.6v1.5h1.5v-1.5h0.8v1.5H26v0.8h-1.5v1.5H26v0.8h-1.5v1.5h-0.8v-1.5h-1.5v1.5h-0.8v-1.5H20v-0.8h1.5
		v-1.5H20v-0.8h1.5v-1.5H22.3z M23.8,14.8h-1.5v1.5h1.5V14.8z" class="st3"></path>
	<path d="M14.1,5c3.9,0,7.3,2.1,9.2,5.3l0,0L18.6,13c-0.9-1.5-2.6-2.6-4.5-2.6l-0.1,0c-2.9,0-5.3,2.4-5.3,5.3
		c0,1,0.3,1.8,0.7,2.6c0.9,1.6,2.6,2.7,4.6,2.7c2,0,3.7-1.1,4.6-2.7l0,0l4.6,2.7c-1.8,3.1-5.2,5.3-9.1,5.3l-0.1,0
		c-3.9,0-7.4-2.1-9.2-5.3c-0.9-1.6-1.4-3.3-1.4-5.3C3.5,9.8,8.2,5,14.1,5z" class="st3"></path>
</g>
</svg>
