<svg xml:space="preserve" style="enable-background:new 0 0 96.2 132;" viewBox="0 0 96.2 132" y="0px" x="0px" xmlns:xlink="http://www.w3.org/1999/xlink" xmlns="http://www.w3.org/2000/svg" id="Layer_1" version="1.1">
<style type="text/css">
	.st0{fill:#FFA000;}
	.st1{fill:#F57C00;}
	.st2{fill:#FFCA28;}
	.st3{fill:#FFFFFF;fill-opacity:0.2;}
	.st4{opacity:0.2;fill:#A52714;enable-background:new    ;}
	.st5{fill:url(#b_00000173871658439493642830000012736148751464138913_);}
</style>
<path d="M0.8,105.7L17,2.5c0.2-1.3,1.2-2.3,2.4-2.5s2.5,0.4,3.1,1.5l16.7,31.1L45.9,20c0.5-1,1.5-1.6,2.6-1.6
	s2.1,0.6,2.6,1.6l45,85.7L0.8,105.7L0.8,105.7z" class="st0"></path>
<path d="M56.6,65.5L39.2,32.6L0.8,105.7L56.6,65.5z" class="st1"></path>
<path d="M96.2,105.7L83.8,29.3c-0.2-1.1-1-2-2-2.3s-2.2-0.1-3,0.7L0.8,105.7L44,129.9c2.7,1.5,6,1.5,8.7,0L96.2,105.7
	L96.2,105.7z" class="st2"></path>
<path d="M83.8,29.3c-0.2-1.1-1-2-2-2.3s-2.2-0.1-3,0.7L63.3,43.2L51.1,20c-0.5-1-1.5-1.6-2.6-1.6S46.4,19,45.9,20
	l-6.7,12.7L22.5,1.5c-0.6-1.1-1.9-1.7-3.1-1.5S17.2,1.2,17,2.5L0.8,105.7H0.8l0.1,0.1l0.4,0.2l77.5-77.6c0.8-0.8,2-1.1,3-0.7
	s1.8,1.2,2,2.3L96,105.8l0.1-0.1L83.8,29.3L83.8,29.3z M1,105.6L17,3.2C17.2,2,18.1,1,19.4,0.7s2.5,0.4,3.1,1.5l16.7,31.1l6.7-12.7
	c0.5-1,1.5-1.6,2.6-1.6s2.1,0.6,2.6,1.6l11.9,22.7L1,105.6L1,105.6z" class="st3"></path>
<path d="M52.7,129.2c-2.7,1.5-6,1.5-8.7,0l-43-24.1l-0.1,0.7L44,129.9c2.7,1.5,6,1.5,8.7,0l43.5-24.2l-0.1-0.7
	L52.7,129.2L52.7,129.2z" class="st4"></path>
<g>
	
		<linearGradient gradientTransform="matrix(95 0 0 -130.9998 42136 58769.9258)" y2="447.6969" x2="-442.518" y1="448.4557" x1="-443.5612" gradientUnits="userSpaceOnUse" id="b_00000114769490659894528830000016795724874468025258_">
		<stop style="stop-color:#FFFFFF;stop-opacity:0.1" offset="0"></stop>
		<stop style="stop-color:#FFFFFF;stop-opacity:8.000000e-02" offset="0.14"></stop>
		<stop style="stop-color:#FFFFFF;stop-opacity:2.000000e-02" offset="0.61"></stop>
		<stop style="stop-color:#FFFFFF;stop-opacity:0" offset="1"></stop>
	</linearGradient>
	<path d="M83.7,29.3c-0.2-1.1-1-2-2-2.3
		s-2.2-0.1-3,0.7L63.2,43.2L51.1,20c-0.5-1-1.5-1.6-2.6-1.6S46.4,19,45.9,20l-6.6,12.7L22.6,1.6C22,0.4,20.8-0.2,19.5,0
		s-2.2,1.2-2.4,2.5L1,105.7l43,24.2c2.7,1.5,6,1.5,8.7,0L96,105.7L83.7,29.3L83.7,29.3z" style="fill:url(#b_00000114769490659894528830000016795724874468025258_);" id="b"></path>
</g>
</svg>
