<svg xml:space="preserve" style="enable-background:new 0 0 32 32;" viewBox="0 0 32 32" y="0px" x="0px" xmlns:xlink="http://www.w3.org/1999/xlink" xmlns="http://www.w3.org/2000/svg" id="Layer_1" version="1.1">
<style type="text/css">
	.st0{fill:#F7DF1E;}
</style>
<g>
	<path d="M0,0h32v32H0V0z" class="st0"></path>
	<path d="M8.4,26.7l2.4-1.5c0.5,0.8,0.9,1.5,1.9,1.5c1,0,1.6-0.4,1.6-1.9V14.7h3V25c0,3.1-1.8,4.5-4.5,4.5
		C10.5,29.5,9.1,28.2,8.4,26.7"></path>
	<path d="M19,26.4l2.4-1.4c0.6,1.1,1.5,1.8,3,1.8c1.2,0,2-0.6,2-1.5c0-1-0.8-1.4-2.2-2L23.6,23c-2.2-0.9-3.6-2.1-3.6-4.5
		c0-2.3,1.7-4,4.4-4c1.9,0,3.3,0.7,4.3,2.4l-2.3,1.5c-0.5-0.9-1.1-1.3-1.9-1.3c-0.9,0-1.4,0.6-1.4,1.3c0,0.9,0.6,1.3,1.8,1.8
		l0.8,0.3c2.6,1.1,4,2.2,4,4.7c0,2.7-2.1,4.2-5,4.2C21.7,29.5,19.9,28.2,19,26.4"></path>
</g>
</svg>
