<svg height="48px" width="48px" viewBox="0 0 48 48" xmlns="http://www.w3.org/2000/svg"><polygon points="1,5 7,9 7,29 1,25" fill="#29b6f6"></polygon><polygon points="47,20 41,24 41,37 47,33" fill="#0288d1"></polygon><polygon points="47,6 41,10 41,17 47,13" fill="#0288d1"></polygon><polygon points="35,5 29,9 29,29 35,25" fill="#0288d1"></polygon><polygon points="1,12 18,23 18,16 1,5" fill="#29b6f6"></polygon><polygon points="35,12 18,23 18,16 35,5" fill="#0288d1"></polygon><polygon points="35,26 18,37 18,30 35,19" fill="#0288d1"></polygon><polygon points="47,34 30,45 30,38 47,27" fill="#0288d1"></polygon><polygon points="30,37.765 18,30 18,37 30,44.765" fill="#29b6f6"></polygon></svg>