<svg xml:space="preserve" style="enable-background:new 0 0 500 500;" viewBox="0 0 500 500" y="0px" x="0px" xmlns:xlink="http://www.w3.org/1999/xlink" xmlns="http://www.w3.org/2000/svg" id="Layer_1" version="1.1">
<style type="text/css">
	.st0{fill:#599636;}
	.st1{fill:#6CAC48;}
	.st2{fill:#C2BFBF;}
</style>
<g>
	<path d="M248.5,1.3l13.3,25.1c3,4.6,6.3,8.7,10.1,12.5c11.2,11.1,21.7,22.9,31.3,35.4c22.6,29.7,37.9,62.7,48.7,98.3
		c6.5,21.8,10.1,44.1,10.3,66.7c1.1,67.6-22.1,125.5-68.7,173.7c-7.6,7.6-15.8,14.7-24.5,21c-4.6,0-6.8-3.5-8.7-6.8
		c-3.5-6.1-5.8-12.7-6.8-19.6c-1.7-8.2-2.7-16.4-2.2-24.8v-3.8C250.9,378.3,246.8,3.3,248.5,1.3L248.5,1.3z" class="st0"></path>
	<path d="M248.5,0.5c-0.5-1.1-1.1-0.3-1.7,0.3c0.3,5.5-1.7,10.3-4.6,15c-3.3,4.6-7.6,8.2-12,12
		c-24.2,21-43.3,46.3-58.5,74.6c-20.3,38.1-30.8,79-33.7,122c-1.4,15.5,4.9,70.3,9.8,86C161,352.4,185,387.6,216.1,418
		c7.6,7.3,15.8,14.2,24.2,20.7c2.5,0,2.7-2.2,3.3-3.8c1.1-3.5,1.9-7,2.5-10.6l5.5-40.8L248.5,0.5z" class="st1"></path>
	<path d="M261.8,450.7c0.5-6.3,3.5-11.4,6.8-16.6c-3.3-1.4-5.7-4.1-7.6-7.1c-1.7-2.9-3-5.9-4.1-9
		c-3.8-11.4-4.6-23.4-5.7-35.1v-7.1c-1.4,1.1-1.7,10.3-1.7,11.7c-0.8,12.4-2.4,24.6-4.9,36.8c-0.8,4.9-1.4,9.8-4.4,14.2
		c0,0.5,0,1.1,0.3,1.9c4.9,14.4,6.3,29.1,7.1,44.1v5.5c0,6.5-0.3,5.1,5.1,7.3c2.2,0.8,4.6,1.1,6.8,2.7c1.7,0,1.9-1.4,1.9-2.5l-0.8-9
		v-25.1C260.4,459.1,261.2,454.8,261.8,450.7L261.8,450.7z" class="st2"></path>
</g>
</svg>
