<svg xml:space="preserve" style="enable-background:new 0 0 61.6 32;" viewBox="0 0 61.6 32" y="0px" x="0px" xmlns:xlink="http://www.w3.org/1999/xlink" xmlns="http://www.w3.org/2000/svg" id="Layer_1" version="1.1">
<style type="text/css">
	.st0{fill:#00618A;}
	.st1{fill:#E48E00;}
	.st2{fill-rule:evenodd;clip-rule:evenodd;fill:#00618A;}
	.st3{fill-rule:evenodd;clip-rule:evenodd;fill:#E48E00;}
</style>
<g>
	<path d="M-0.2,29.1h2v-8.1l3.2,7c0.4,0.8,0.9,1.2,1.9,1.2s1.5-0.3,1.9-1.2l3.2-7v8.1h2v-8c0-0.8-0.3-1.2-1-1.4
		c-1.6-0.5-2.6-0.1-3.1,1l-3.1,6.9l-3-6.9c-0.5-1-1.5-1.5-3.1-1c-0.6,0.2-1,0.6-1,1.4V29.1z M15.7,22.6h2V27c0,0.2,0.1,0.8,1.2,0.8
		c0.6,0,4.4,0,4.4,0v-5.3h2c0,0,0,7.2,0,7.2c0,1.8-2.2,2.2-3.2,2.2h-6.4v-1.4l6.5,0c1.3-0.1,1.2-0.8,1.2-1v-0.5H19
		c-2,0-3.3-0.9-3.3-1.9C15.7,27.1,15.7,22.6,15.7,22.6L15.7,22.6z" class="st0"></path>
	<path d="M27,29.1h5.9c0.7,0,1.4-0.1,1.9-0.4c0.9-0.4,1.3-1,1.3-1.7v-1.5c0-0.6-0.5-1.1-1.5-1.5
		c-0.5-0.2-1.1-0.3-1.7-0.3h-2.5c-0.8,0-1.2-0.2-1.3-0.8c0-0.1,0-0.1,0-0.2v-0.9c0-0.1,0-0.1,0-0.2c0.1-0.4,0.3-0.5,1-0.6
		c0.1,0,0.1,0,0.2,0h5.8v-1.4h-5.7c-0.8,0-1.3,0.1-1.6,0.2c-1.2,0.4-1.7,1-1.7,2v1.2c0,0.9,1,1.7,2.8,1.9c0.2,0,0.4,0,0.6,0h2.1
		c0.1,0,0.2,0,0.2,0c0.6,0.1,0.9,0.2,1.1,0.4c0.1,0.1,0.2,0.2,0.2,0.4V27c0,0.1-0.1,0.3-0.3,0.5c-0.2,0.2-0.5,0.3-0.9,0.3
		c-0.1,0-0.1,0-0.2,0H27L27,29.1L27,29.1z M48.8,26.8c0,1.4,1,2.2,3.1,2.3c0.2,0,0.4,0,0.6,0h5.3v-1.4h-5.4c-1.2,0-1.6-0.3-1.6-1v-7
		h-2L48.8,26.8L48.8,26.8z M37.3,26.9V22c0-1.2,0.9-2,2.6-2.2c0.2,0,0.4,0,0.6,0h3.9c0.2,0,0.4,0,0.6,0c1.7,0.2,2.6,1,2.6,2.2v4.9
		c0,1-0.4,1.5-1.2,1.9l2,1.8h-2.4l-1.6-1.5l-1.6,0.1h-2.2c-0.4,0-0.8-0.1-1.2-0.2C38,28.7,37.3,28,37.3,26.9L37.3,26.9z M39.5,26.7
		c0,0.1,0,0.1,0,0.2c0.1,0.6,0.6,0.9,1.5,0.9h1.9l-1.7-1.5h2.4l1.5,1.3c0.3-0.1,0.5-0.4,0.5-0.7c0-0.1,0-0.1,0-0.2v-4.7
		c0-0.1,0-0.1,0-0.2c-0.1-0.5-0.6-0.8-1.4-0.8H41c-0.9,0-1.5,0.4-1.5,1L39.5,26.7L39.5,26.7z" class="st1"></path>
	<g>
		<path d="M59.6,17.5c-1.3,0-2.2,0.1-3,0.4C56.3,18,56,18,55.9,18.3c0.1,0.1,0.1,0.3,0.2,0.5c0.2,0.3,0.5,0.7,0.8,1
			c0.3,0.2,0.7,0.5,1,0.7c0.6,0.4,1.3,0.6,1.9,1c0.3,0.2,0.7,0.5,1,0.7c0.2,0.1,0.3,0.3,0.5,0.4v0c-0.1-0.1-0.1-0.3-0.2-0.5
			l-0.5-0.5c-0.5-0.6-1-1.1-1.6-1.6c-0.5-0.4-1.6-0.8-1.8-1.4l0,0c0.3,0,0.8-0.2,1.1-0.2c0.5-0.1,1-0.1,1.6-0.2l0.7-0.2v-0.1
			c-0.3-0.3-0.5-0.7-0.8-0.9c-0.8-0.7-1.7-1.4-2.6-1.9c-0.5-0.3-1.1-0.5-1.6-0.8c-0.2-0.1-0.5-0.1-0.6-0.3c-0.3-0.4-0.4-0.8-0.6-1.2
			c-0.4-0.9-0.9-1.8-1.3-2.7c-0.3-0.6-0.4-1.2-0.8-1.8c-1.6-2.7-3.4-4.3-6.1-5.9c-0.6-0.3-1.3-0.5-2-0.6l-1.2-0.1
			c-0.2-0.1-0.5-0.4-0.7-0.5c-0.9-0.6-3.2-1.8-3.9-0.2c-0.4,1,0.6,2,1,2.5c0.3,0.4,0.6,0.8,0.8,1.2c0.1,0.3,0.1,0.5,0.2,0.8
			C40.8,6,41,6.8,41.4,7.4c0.2,0.3,0.4,0.7,0.6,1c0.1,0.2,0.4,0.3,0.4,0.5c-0.2,0.3-0.2,0.8-0.4,1.2c-0.6,1.8-0.3,3.9,0.5,5.2
			c0.2,0.4,0.8,1.3,1.6,0.9c0.7-0.3,0.5-1.2,0.7-2c0-0.2,0-0.3,0.1-0.4v0l0.6,1.3c0.5,0.8,1.3,1.6,2,2.1c0.4,0.3,0.7,0.8,1.1,0.9v0
			h0c-0.1-0.1-0.2-0.2-0.4-0.3c-0.3-0.3-0.6-0.6-0.8-0.9c-0.7-0.9-1.2-1.8-1.7-2.9c-0.2-0.5-0.5-1-0.7-1.5C45,12.4,45,12.1,44.9,12
			c-0.2,0.4-0.6,0.6-0.7,1.1c-0.3,0.7-0.3,1.5-0.4,2.4c-0.1,0,0,0-0.1,0c-0.5-0.1-0.7-0.6-0.9-1.1c-0.5-1.1-0.6-2.9-0.1-4.2
			c0.1-0.3,0.6-1.4,0.4-1.7c-0.1-0.3-0.4-0.5-0.6-0.7c-0.2-0.3-0.4-0.7-0.6-1c-0.4-0.9-0.6-1.8-1-2.7c-0.2-0.4-0.5-0.8-0.8-1.2
			c-0.3-0.4-0.6-0.7-0.9-1.2c-0.1-0.2-0.2-0.5-0.1-0.6c0-0.1,0.1-0.2,0.2-0.2c0.2-0.2,0.8,0.1,1,0.1c0.6,0.2,1,0.5,1.5,0.8
			c0.2,0.2,0.5,0.5,0.7,0.5H43c0.5,0.1,1.1,0,1.5,0.2c0.8,0.3,1.6,0.6,2.2,1.1c2.1,1.3,3.7,3.1,4.9,5.4c0.2,0.4,0.3,0.7,0.4,1.1
			c0.3,0.8,0.7,1.5,1.1,2.3c0.3,0.7,0.6,1.5,1.1,2.1c0.2,0.3,1.2,0.5,1.6,0.7c0.3,0.1,0.8,0.3,1.1,0.4c0.5,0.3,1.1,0.7,1.6,1.1
			C58.8,16.8,59.6,17.2,59.6,17.5L59.6,17.5z" class="st0"></path>
		<path d="M43.7,3.9c-0.3,0-0.4,0-0.6,0.1v0h0c0.1,0.3,0.3,0.4,0.5,0.6l0.4,0.7l0,0c0.2-0.2,0.3-0.4,0.3-0.8
			c-0.1-0.1-0.1-0.2-0.2-0.3C44,4.1,43.8,4,43.7,3.9L43.7,3.9z" class="st2"></path>
	</g>
	<path d="M58.8,27.7c0,0.9,0.7,1.5,1.5,1.5c0.8,0,1.5-0.6,1.5-1.5c0-0.9-0.7-1.5-1.5-1.5C59.5,26.2,58.8,26.9,58.8,27.7
		z M61.4,27.7c0,0.7-0.5,1.2-1.2,1.2c-0.7,0-1.2-0.5-1.2-1.2c0-0.7,0.5-1.2,1.2-1.2C60.9,26.6,61.4,27.1,61.4,27.7z M60.7,28.6H61
		l-0.5-0.8c0.3,0,0.5-0.2,0.5-0.5c0-0.3-0.2-0.5-0.6-0.5h-0.7v1.7H60v-0.7h0.3L60.7,28.6L60.7,28.6z M60,27.6v-0.5h0.3
		c0.2,0,0.4,0,0.4,0.2c0,0.2-0.2,0.3-0.4,0.3L60,27.6L60,27.6z" class="st3"></path>
</g>
</svg>
