<svg xmlns="http://www.w3.org/2000/svg" width="472.133" height="630.131"
  viewBox="0 0 472.133 630.131">
  <defs>
    <style>
      .cls-1 {
      fill: rgba(40, 40, 39, 0.06);
      fill-rule: evenodd;
      }
    </style>
  </defs>
  <path id="Path_1" data-name="Path 1" class="cls-1"
    d="M393.878,630.131H314v-.007a79.2,79.2,0,0,1-77.809-69.1c-4.672,38.916-38.225,69.106-78.439,69.106h-.629V563.675A79.2,79.2,0,0,1,79.7,630.123v.007H0V629.5A79.223,79.223,0,0,1,64.982,551.66H0v-.628a79.195,79.195,0,0,1,70.252-78.6A79.022,79.022,0,0,1,.074,394.577H0V78.738H.078C.346,35.354,35.544.346,78.439.078V0H79.7V.078a79.073,79.073,0,0,1,77.424,66.388V0h.629a79.2,79.2,0,0,1,77.81,65.095V0h.629a79.2,79.2,0,0,1,78.443,69.184A79.069,79.069,0,0,1,392.436.078V0h1.442V.078a78.932,78.932,0,0,1,78.248,78.66h.007V315.584h0a79.2,79.2,0,0,1-68.879,78.242,79.2,79.2,0,0,1,68.879,78.1h0v158.2Zm-.814-10.606a79.247,79.247,0,0,1,68.467-68.493,79.243,79.243,0,0,1-68.467-68.5c-4.5,35.652-32.659,64.266-68.447,68.5A79.116,79.116,0,0,1,393.064,619.525ZM236.907,235.855H314v-77.21A77.782,77.782,0,0,0,236.907,235.855Zm-.022,1.258H171.806a79.265,79.265,0,0,1,64.38,67.875,79.265,79.265,0,0,1,64.405-67.875ZM235.56,393.19V315.981a77.752,77.752,0,0,0-77.072,77.209Zm-77.072,1.387a77.727,77.727,0,0,0,77.072,77.084V394.577Zm77.069-158.722a77.679,77.679,0,0,0-77.1-77.21v77.21Zm-77.1,1.261v77.21h77.1A77.679,77.679,0,0,0,158.462,237.116Zm89.366,78.468A79.275,79.275,0,0,1,314,379.729V315.584ZM314,314.326v-77.21a77.781,77.781,0,0,0-77.091,77.21Zm0,78.865a77.695,77.695,0,0,0-77.111-77.209V393.19Zm-77.111,1.387v77.084A77.67,77.67,0,0,0,314,394.577Zm78.408-158.722h77.14a77.719,77.719,0,0,0-77.14-77.21Zm0,1.258v77.21a77.719,77.719,0,0,0,77.14-77.21Zm77.14,156.077a77.719,77.719,0,0,0-77.14-77.209V393.19Zm-77.118,1.387a77.8,77.8,0,0,0,77.121,77.084V394.577Zm7.581-79.425a79.128,79.128,0,0,1,69.54,64.621V314.721h0a79.22,79.22,0,0,1,64.98-77.607H393.685A79.2,79.2,0,0,1,322.9,315.152Zm-7.6,313.718h77.14a77.715,77.715,0,0,0-77.14-77.207Zm0-78.471a77.72,77.72,0,0,0,77.14-77.211h-77.14Zm0-78.471h65.292a79.451,79.451,0,0,1-65.954-68.143,79.257,79.257,0,0,1-65.951,68.143h66.613Zm-78.385,1.26A77.783,77.783,0,0,0,314,550.4V473.189ZM314,628.871V551.66H236.907A77.7,77.7,0,0,0,314,628.871ZM236.885,550.4h63.657a79.269,79.269,0,0,1-64.354-67.861A79.268,79.268,0,0,1,171.835,550.4h65.05Zm-78.422,78.471a77.6,77.6,0,0,0,77.1-77.211h-77.1Zm0-78.471a77.681,77.681,0,0,0,77.1-77.211h-77.1ZM79.7,628.871c42.408-.338,77.1-34.659,77.179-77.211H79.7ZM157.121,550.4V485.2a79.286,79.286,0,0,1-63.968,65.2Zm-77.424,0c42.408-.338,77.1-34.785,77.179-77.211H79.7Zm0-78.738c42.408-.338,77.1-34.785,77.179-77.084H79.7Zm-.634-87.791a79.237,79.237,0,0,1,70.187-68.716,79.239,79.239,0,0,1-70.184-68.691A79.238,79.238,0,0,1,8.885,315.154,79.23,79.23,0,0,1,79.063,383.87ZM79.7,235.855h63.725a78.8,78.8,0,0,1-64.356-67.865,78.692,78.692,0,0,1-64.352,67.865H79.7ZM1.26,628.871H78.439V551.664A77.911,77.911,0,0,0,1.26,628.871Zm0-78.471H78.439V473.189A77.919,77.919,0,0,0,1.26,550.4Zm77.179-78.738V394.577H1.26A77.89,77.89,0,0,0,78.439,471.661ZM1.258,393.19H78.436c-.062-42.424-34.771-76.873-77.179-77.209Zm0-78.867c42.408-.337,77.116-34.785,77.179-77.21H1.258Zm0-78.471c42.408-.336,77.116-34.785,77.179-77.21H1.258Zm0-78.913c42.408-.337,77.116-34.785,77.179-77.21H1.258ZM78.439,1.261A77.97,77.97,0,0,0,1.26,78.738H78.439Zm.624,87.79a79.252,79.252,0,0,1-67.079,68.333H146.168A79.333,79.333,0,0,1,79.063,89.051ZM79.7,1.261V78.738h77.179A77.8,77.8,0,0,0,79.7,1.261Zm77.181,78.469H79.7a77.915,77.915,0,0,0,77.179,77.21Zm0,78.913H79.7a77.914,77.914,0,0,0,77.179,77.21Zm0,78.471H79.7a77.915,77.915,0,0,0,77.179,77.21Zm0,78.868A77.914,77.914,0,0,0,79.7,393.19h77.179Zm.793,86.756a79.334,79.334,0,0,1-66.112,69.192H223.7A79.161,79.161,0,0,1,157.67,402.737Zm.465-21.551a79.417,79.417,0,0,1,66.518-65.6H158.135Zm.327-379.926V78.738h77.1A77.736,77.736,0,0,0,158.462,1.261Zm0,78.469v77.21a77.679,77.679,0,0,0,77.1-77.21Zm77.722,9.323a79.158,79.158,0,0,1-70.407,68.737,79.237,79.237,0,0,1,70.41,68.716A79.238,79.238,0,0,1,306.6,157.79,79.233,79.233,0,0,1,236.184,89.052Zm.7-87.792V78.738H314A77.751,77.751,0,0,0,236.885,1.261ZM314,79.729H236.907A77.782,77.782,0,0,0,314,156.939Zm1.294,77.21a77.719,77.719,0,0,0,77.14-77.21h-77.14ZM392.436,1.261a77.884,77.884,0,0,0-77.121,77.478h77.121Zm.625,87.791a79.229,79.229,0,0,1-70.4,68.739,79.238,79.238,0,0,1,70.4,68.721,79.236,79.236,0,0,1,70.4-68.721A79.235,79.235,0,0,1,393.06,89.051Zm.818-87.791V78.738h76.995C470.535,36.046,436.363,1.6,393.878,1.261Zm77,78.469h-77.14a77.854,77.854,0,0,0,77.14,77.21Zm0,78.916a77.854,77.854,0,0,0-77.14,77.21h77.14Zm0,78.471a77.853,77.853,0,0,0-77.14,77.21h77.14Zm0,78.863H393.878V393.19A77.54,77.54,0,0,0,470.873,315.979ZM393.878,394.6v77.062h76.995A77.482,77.482,0,0,0,393.878,394.6Zm77,78.59h-77.14a77.855,77.855,0,0,0,77.14,77.211Zm0,78.475a77.849,77.849,0,0,0-77.14,77.207h77.14Z" />
</svg>