<svg xml:space="preserve" style="enable-background:new 0 0 32 32;" viewBox="0 0 32 32" y="0px" x="0px" xmlns:xlink="http://www.w3.org/1999/xlink" xmlns="http://www.w3.org/2000/svg" id="Calque_1" version="1.1">
<style type="text/css">
	.st0{fill:#1769FF;}
	.st1{fill:#FFFFFF;}
</style>
<g>
	<circle r="16" cy="16" cx="16" class="st0" id="background"></circle>
	<path d="M11.3,8.8c0.7,0,1.3,0.1,1.9,0.2c0.6,0.1,1.1,0.3,1.5,0.6c0.4,0.3,0.7,0.6,0.9,1.1s0.3,1,0.3,1.7
		c0,0.7-0.2,1.3-0.5,1.8c-0.3,0.5-0.8,0.9-1.5,1.2c0.9,0.3,1.6,0.7,2,1.4c0.4,0.6,0.7,1.4,0.7,2.3c0,0.7-0.1,1.4-0.4,1.9
		c-0.3,0.5-0.7,1-1.1,1.3c-0.5,0.3-1,0.6-1.6,0.8c-0.6,0.2-1.3,0.2-1.9,0.2h-7V8.8H11.3z M10.9,14.6c0.6,0,1-0.1,1.4-0.4
		c0.4-0.3,0.5-0.7,0.5-1.3c0-0.3-0.1-0.6-0.2-0.8c-0.1-0.2-0.3-0.4-0.5-0.5c-0.2-0.1-0.4-0.2-0.7-0.3c-0.3,0-0.5-0.1-0.8-0.1h-3v3.4
		L10.9,14.6L10.9,14.6z M11.1,20.8c0.3,0,0.6,0,0.9-0.1c0.3-0.1,0.5-0.2,0.8-0.3c0.2-0.1,0.4-0.3,0.5-0.6c0.1-0.2,0.2-0.6,0.2-0.9
		c0-0.7-0.2-1.3-0.6-1.6c-0.4-0.3-1-0.5-1.7-0.5H7.7v4L11.1,20.8L11.1,20.8z M20.6,20.5c0.4,0.4,1.1,0.6,1.9,0.6
		c0.6,0,1.1-0.1,1.5-0.4c0.4-0.3,0.7-0.6,0.8-0.9h2.5c-0.4,1.3-1,2.2-1.9,2.7c-0.8,0.5-1.9,0.8-3,0.8c-0.8,0-1.6-0.1-2.2-0.4
		s-1.2-0.6-1.7-1.1c-0.5-0.5-0.8-1.1-1.1-1.7c-0.2-0.7-0.4-1.4-0.4-2.2c0-0.8,0.1-1.5,0.4-2.2c0.3-0.7,0.6-1.3,1.1-1.8
		c0.5-0.5,1-0.9,1.7-1.2c0.7-0.3,1.4-0.4,2.2-0.4c0.9,0,1.7,0.2,2.3,0.5c0.7,0.3,1.2,0.8,1.6,1.4c0.4,0.6,0.7,1.2,0.9,2
		c0.2,0.7,0.3,1.5,0.2,2.3h-7.6C20,19.4,20.2,20,20.6,20.5L20.6,20.5z M23.9,14.9c-0.3-0.4-0.9-0.6-1.6-0.6c-0.5,0-0.8,0.1-1.1,0.2
		c-0.3,0.2-0.5,0.3-0.7,0.6s-0.3,0.5-0.4,0.7c-0.1,0.3-0.1,0.5-0.1,0.7h4.7C24.5,15.9,24.2,15.3,23.9,14.9L23.9,14.9z M19.4,9.5h5.9
		v1.6h-5.9V9.5z" class="st1" id="behance"></path>
</g>
</svg>
