<svg xml:space="preserve" style="enable-background:new 0 0 32 32;" viewBox="0 0 32 32" y="0px" x="0px" xmlns:xlink="http://www.w3.org/1999/xlink" xmlns="http://www.w3.org/2000/svg" id="Layer_1" version="1.1">
<style type="text/css">
	.st0{fill:#34AADF;}
	.st1{fill:#FFFFFF;}
</style>
<g>
	<path d="M16,32c8.8,0,16-7.2,16-16S24.8,0,16,0S0,7.2,0,16S7.2,32,16,32z" class="st0"></path>
	<path d="M6.7,15.9c0,0,8-3.3,10.8-4.4c1.1-0.5,4.7-1.9,4.7-1.9s1.7-0.6,1.5,0.9c0,0.6-0.4,2.9-0.8,5.4
		c-0.6,3.5-1.2,7.3-1.2,7.3s-0.1,1.1-0.9,1.2c-0.8,0.2-2.1-0.6-2.3-0.8c-0.2-0.1-3.5-2.2-4.7-3.2c-0.3-0.3-0.7-0.8,0-1.5
		c1.7-1.5,3.7-3.4,4.9-4.6c0.6-0.6,1.1-1.8-1.2-0.3c-3.3,2.3-6.5,4.4-6.5,4.4s-0.7,0.5-2.1,0c-1.4-0.4-3-1-3-1S4.8,16.6,6.7,15.9
		L6.7,15.9z" class="st1"></path>
</g>
</svg>
