<svg xml:space="preserve" style="enable-background:new 0 0 200 32;" viewBox="0 0 200 32" y="0px" x="0px" xmlns:xlink="http://www.w3.org/1999/xlink" xmlns="http://www.w3.org/2000/svg" id="Layer_1" version="1.1">
<style type="text/css">
	.st0{fill:#0055D9;}
</style>
<path d="M38,0h7.8l-9.7,32h-7.1l-6.2-19.3L16.8,32H9.7L0,0h7.9l6.2,19.7L20.1,0h5.8l5.9,19.7L38,0L38,0z
	 M52.6,28.1c-2.6-2.6-3.8-6.1-3.8-10.5V0h7.5v17.7c0,2.5,0.7,4.3,2.1,5.6c1.4,1.3,3.3,1.9,5.7,1.9c2.4,0,4.2-0.6,5.6-1.9
	c1.4-1.3,2-3.2,2-5.6V0h7.5v17.6c0,4.4-1.3,7.9-3.8,10.5S69,32,64,32C59,32,55.2,30.7,52.6,28.1L52.6,28.1z M82.1,27L99.9,6.3H82.5
	V0h26.7v5.1L91.4,25.7h17.8V32H82.1V27L82.1,27z M112.1,27L130,6.3h-17.4V0h26.7v5.1l-17.8,20.6h17.8V32h-27.1L112.1,27L112.1,27z
	 M146.1,28.1c-2.6-2.6-3.9-6.1-3.9-10.5V0h7.5v17.7c0,2.5,0.7,4.3,2.1,5.6s3.3,1.9,5.7,1.9c2.4,0,4.2-0.6,5.6-1.9s2-3.2,2-5.6V0h7.5
	v17.6c0,4.4-1.3,7.9-3.8,10.5s-6.3,3.9-11.4,3.9C152.5,32,148.7,30.7,146.1,28.1L146.1,28.1z M183.3,18.9V32h-7.5V0H200l-1.7,6.4
	h-14.9v6.7h12.7l-1.6,5.8H183.3z" class="st0" id="Path_1"></path>
</svg>
