<svg xml:space="preserve" style="enable-background:new 0 0 110.3 120;" viewBox="0 0 110.3 120" y="0px" x="0px" xmlns:xlink="http://www.w3.org/1999/xlink" xmlns="http://www.w3.org/2000/svg" id="Layer_1" version="1.1">
<style type="text/css">
	.st0{fill:#003DFF;}
</style>
<path d="M55.2,4.8C25,4.8,0.4,29.1,0,59.1c-0.4,30.5,24.3,55.8,54.8,56c9.4,0.1,18.5-2.2,26.6-6.6
	c0.8-0.4,0.9-1.5,0.2-2.1l-5.2-4.6c-1-0.9-2.5-1.2-3.8-0.6c-5.6,2.4-11.7,3.6-18,3.5C29.9,104.4,10,83.8,10.4,59.2
	c0.4-24.3,20.3-44,44.7-44h44.7v79.5L74.5,72.1c-0.8-0.7-2.1-0.6-2.7,0.3c-4.1,5.4-10.7,8.8-18.1,8.2C43.5,80,35.2,71.7,34.4,61.5
	c-0.9-12.2,8.7-22.4,20.8-22.4c10.9,0,19.8,8.4,20.7,19c0.1,0.9,0.5,1.8,1.2,2.5l6.6,5.9c0.8,0.7,1.9,0.3,2.1-0.7
	c0.5-2.5,0.6-5.2,0.5-7.9c-1.1-15.5-13.6-28-29.2-29c-17.8-1.1-32.7,12.8-33.2,30.3c-0.5,17,13.5,31.7,30.5,32.1
	c7.1,0.2,13.7-2.1,19-5.9l33.2,29.4c1.4,1.3,3.7,0.3,3.7-1.6V6.9c0-1.2-0.9-2.1-2.1-2.1L55.2,4.8C55.2,4.8,55.2,4.8,55.2,4.8z" class="st0"></path>
</svg>
