<svg xml:space="preserve" style="enable-background:new 0 0 500 500;" viewBox="0 0 500 500" y="0px" x="0px" xmlns:xlink="http://www.w3.org/1999/xlink" xmlns="http://www.w3.org/2000/svg" id="Layer_1" version="1.1">
<g id="Layer_2_00000170236724405652225000000010311531822970288031_">
	<g id="Layer_1-2">
		<path d="M155.3,305.9V196.2h5.9v17.1c0.7-0.7,1.4-1.7,2.1-2.4c4.9-10.1,15.4-16.8,26.9-16.8c13.6-0.3,24.4,4.5,31.1,16.8
			c8.4,15,8.7,33.5,1.4,49.2c-5.9,13.6-20.9,20.3-37,17.8c-10.1-0.7-18.9-6.6-23.7-15.7v43.6H155.3z M161.2,235.3l1.4,12.9
			c2.4,14.7,11.2,23.4,24.4,24.8c13.3,2.1,25.8-5.2,30.7-17.8c5.2-12.6,4.9-26.9-1-39.1c-4.9-11.2-16.8-17.8-29-16.1
			c-11.2,0.7-20.9,8.7-23.7,19.9C163,224.9,161.9,230.1,161.2,235.3L161.2,235.3z M348.7,250c-1.7,16.1-15.4,27.9-31.4,28.3
			c-24.8,1.4-36.7-15.4-38.4-34.2c-1.4-10.5,0.3-20.9,4.9-30.4c6.3-13.3,20.6-20.9,35.3-18.9c14,1,25.5,11.2,28.6,24.8
			c1.4,5.9,2.1,12.2,2.8,18.2h-65.3c-1,17.5,8,31.1,21.3,34.6c16.4,4.2,30.4-3.1,35.6-18.9C343.1,249.3,345.2,249,348.7,250
			L348.7,250z M285.2,231.9h58.7c-0.3-18.5-11.9-31.8-27.6-32.1C298.8,199.7,285.9,212.6,285.2,231.9z M360.9,250.4h5.6
			c0.3,8.7,5.6,16.4,13.6,19.9c9.8,4.5,21.3,4.2,30.7-0.7c5.2-2.4,8.4-7.7,8-13.6c0.3-5.6-3.1-10.8-8.4-12.6
			c-6.3-2.4-12.9-3.5-19.6-5.6c-6.6-1.7-13.3-4.2-19.6-7c-10.5-5.2-11.2-24.8,0.7-31.1c12.2-7,27.2-7,39.5-0.7
			c7.7,4.2,11.9,12.6,10.5,21.3h-4.9c0-0.3-0.3-0.3-0.3-0.7c-0.7-15.7-14-20.6-27.9-19.2c-4.2,0.3-8.4,1.7-12.2,3.5
			c-4.5,2.1-7.3,7-7,12.2c0,5.2,3.1,9.8,8,11.5c6.3,2.4,12.6,3.8,19.2,5.6l15.4,4.2c7.3,2.4,12.2,9.1,12.6,16.4
			c1.4,8.4-3.1,16.4-10.5,20.3c-13.6,7.7-35.6,5.6-45.7-4.2C363.7,264.7,360.9,257.7,360.9,250.4L360.9,250.4z M497.8,220.3h-5.6
			c0-0.7-0.3-1.4-0.3-2.1c0-8.4-6.3-15.4-14.3-16.8c-7.3-2.1-15.4-1.7-22.7,1c-5.9,1.7-9.8,7-10.1,13.3c-0.3,5.9,3.8,11.5,9.8,12.9
			L479,235c2.8,0.7,5.2,1.4,7.7,2.4c10.5,3.8,16.1,15.4,12.2,25.8c-1.7,5.2-5.9,9.8-11.2,11.9c-11.5,5.2-24.8,5.2-36.3,0.3
			c-9.8-4.2-15.7-14-15.4-24.4h5.2c3.1,16.1,18.9,26.2,34.9,23c3.5-0.7,7-2.1,10.1-4.2c4.9-2.4,8-8,7.7-13.6
			c0.3-5.6-3.1-10.8-8.4-12.6c-6.3-2.4-12.9-3.5-19.6-5.6c-6.6-1.7-13.3-4.2-19.6-7c-10.1-4.9-10.8-24.4,0.7-30.7
			c12.2-7.3,27.6-7.3,40.2-0.3C494.7,203.6,498.5,212,497.8,220.3L497.8,220.3z M145.5,276.2c-4.5,1.7-9.4-0.3-11.5-4.5l-20.9-29
			l-3.1-4.2l-24.4,32.8c-2.1,3.8-6.6,5.9-10.8,4.2l31.4-41.9l-29-37c4.2-1.4,9.1,0,11.5,4.2l21.6,29.3l21.6-29
			c2.1-3.8,6.6-5.6,10.8-4.2l-11.2,14.7l-15.4,19.9c-1.7,1.4-1.7,4.2-0.3,5.6l0.3,0.3L145.5,276.2L145.5,276.2z M278.2,195.9v5.6
			c-16.1-1-30,11.2-31.1,27.2l0,0c0,1,0,2.1,0,2.8v44.3h-5.9v-79.3h5.6V213C253.8,200.8,264.6,196.6,278.2,195.9L278.2,195.9z
			 M-0.1,233.9l2.4-12.6c7-24.8,35.6-35.3,55.2-19.9c11.5,9.1,14.3,22,14,36.3H6.9c-1,25.5,17.5,41.2,41.2,33.2
			c7.7-2.8,13.6-9.4,15.7-17.5c1.4-4.2,3.5-4.9,7-3.5c-1.4,10.1-7,18.9-15.7,24.1c-14.3,8-32.1,5.6-44.3-5.6
			c-5.9-6.6-9.4-14.7-10.1-23.4c0-1.4-0.3-2.8-0.7-4.2C-0.1,238.5-0.1,236-0.1,233.9z M6.9,232.2h58.7
			c-0.3-18.5-12.2-31.8-27.9-32.1C20.2,199.7,7.6,213,6.9,232.2L6.9,232.2z"></path>
	</g>
</g>
</svg>
