<svg xml:space="preserve" style="enable-background:new 0 0 24 32;" viewBox="0 0 24 32" y="0px" x="0px" xmlns:xlink="http://www.w3.org/1999/xlink" xmlns="http://www.w3.org/2000/svg" id="Layer_1" version="1.1">
<style type="text/css">
	.st0{fill:#F44336;}
	.st1{fill:#1565C0;}
</style>
<g id="Layer_2_00000101078539287577027650000014065547213399454370_">
	<g id="Layer_1-2">
		<path d="M11.7,16.7c-0.9-1.4-1.6-2.8-2.2-4.4C8.2,9,17.8,5.9,13.9,0c1.7,4.1-6.1,6.6-6.8,10
			C6.5,13.1,11.7,16.7,11.7,16.7z" class="st0"></path>
		<path d="M11.9,10.6c-0.2,2,1.8,3.1,1.8,4.6c0,1.2-1.2,2.2-1.2,2.2s2.2-0.4,2.9-2.3c0.8-2-1.5-3.4-1.2-5
			c0.2-1.6,4.8-4.4,4.8-4.4S12.3,6.1,11.9,10.6z" class="st0"></path>
		<path d="M18.5,16.8c1.4-0.3,2.6,0.6,2.6,1.6c0,2.3-3.2,4.5-3.2,4.5s5-0.6,5-4.4C22.8,16,20.4,15.4,18.5,16.8z
			 M16.1,18.7c0,0,1.6-1.1,2-1.5C14.3,18,5.6,18.1,5.6,17.4c0-0.6,2.8-1.3,2.8-1.3S2.2,16,2.2,17.8C2.2,19.8,10.3,19.9,16.1,18.7z" class="st1"></path>
		<path d="M15.2,20.5c-3.6,1.2-10.3,0.8-8.3-0.8c-1,0-2.4,0.8-2.4,1.5c0,1.5,7.2,2.6,12.5,0.5L15.2,20.5z" class="st1"></path>
		<path d="M7.8,23c-1.3,0-2.2,0.8-2.2,1.5c0,1.9,7.8,2.1,10.9,0.2l-2-1.3C12.2,24.3,6.4,24.5,7.8,23z" class="st1"></path>
		<path d="M21.8,26.1c0-0.7-0.8-1.1-1.2-1.3c1.8,4.3-17.9,4-17.9,1.4c0-0.6,1.4-1.1,2.8-0.9l-1.1-0.7
			C1.8,24.3,0,25.5,0,26.4C0,30.8,21.8,30.6,21.8,26.1z" class="st1"></path>
		<path d="M24,27.7c-3.3,3.3-11.7,4.5-20.2,2.4C12.3,33.7,24,31.7,24,27.7z" class="st1"></path>
	</g>
</g>
</svg>
