<svg xml:space="preserve" style="enable-background:new 0 0 38.1 38;" viewBox="0 0 38.1 38" y="0px" x="0px" xmlns:xlink="http://www.w3.org/1999/xlink" xmlns="http://www.w3.org/2000/svg" id="Layer_1" version="1.1">
<style type="text/css">
	.st0{fill:#546E7A;}
	.st1{fill:#F50057;}
	.st2{fill:#D500F9;}
	.st3{fill:#29B6F6;}
	.st4{fill:#00E5FF;}
</style>
<polygon points="16.9,26.8 19.5,24 22.1,26.8 22.1,38 16.9,38" class="st0"></polygon>
<polygon points="12.8,24.1 16.5,23.4 17,27.1 10.4,36.2 6.2,33.1" class="st1"></polygon>
<polygon points="11,19.4 14.4,21 12.6,24.4 1.9,27.8 0.3,22.9" class="st2"></polygon>
<polygon points="12.3,14.6 14.1,17.9 10.7,19.6 0,16.1 1.6,11.1" class="st3"></polygon>
<polygon points="16.2,11.5 15.7,15.2 11.9,14.5 5.3,5.5 9.6,2.4" class="st4"></polygon>
<polygon points="21.1,11.2 18.5,14 15.9,11.2 15.9,0 21.1,0" class="st0"></polygon>
<polygon points="25.3,13.9 21.6,14.6 21.1,10.9 27.7,1.8 31.9,4.9" class="st1"></polygon>
<polygon points="27.1,18.6 23.7,17 25.5,13.6 36.1,10.2 37.7,15.1" class="st2"></polygon>
<polygon points="25.8,23.4 24,20.1 27.4,18.4 38.1,21.9 36.5,26.9" class="st3"></polygon>
<polygon points="21.9,26.5 22.4,22.8 26.1,23.5 32.7,32.5 28.5,35.6" class="st4"></polygon>
</svg>
