<svg xml:space="preserve" style="enable-background:new 0 0 814.8 735.9;" viewBox="0 0 814.8 735.9" y="0px" x="0px" xmlns:xlink="http://www.w3.org/1999/xlink" xmlns="http://www.w3.org/2000/svg" id="Layer_1" version="1.1">
<style type="text/css">
	.st0{fill:#53C1DE;}
	.st1{fill:#FFFFFF;}
</style>
<g>
	<path d="M557.8,734.9c-44,0-94.5-22.8-146.5-65.9c-50.5,42.3-103.4,65.4-149.8,65.4l0,0c-21.6,0-41.2-5-58.3-14.8
		c-26.9-15.5-45.7-43.5-54.3-81c-7.6-33-7.4-73.6,0.6-118.1c-43.4-15.8-79.8-37.4-105.8-62.6c-28.7-28-43.9-59.7-43.9-91.8
		c0-58.4,55.8-113.3,149.7-148c-17.6-99.1,1.6-172.6,53.1-202.4c17.3-10,36.8-15.1,57.8-15.1c45.1,0,96.2,23.4,148.2,67.8
		C461.9,23.6,513.5,0,558,0c19.3,0,36.9,4.5,52.3,13.4c28.6,16.5,47.8,44.1,56.9,81.9c8.3,34.3,8,75.8-0.9,123.5
		c94.5,34.4,148.5,87.8,148.5,147.3c0,62.4-51.4,113.2-148.7,147.1c17.9,100-2.5,177.4-55.2,207.9
		C595.3,730.2,577.4,734.9,557.8,734.9z" class="st0"></path>
	<path d="M9.8,366.1c0,60,58.6,116.1,151.1,147.7c-18.5,92.9-3.3,167.8,47.3,197c52,30,129.5,9.2,203.1-55.1
		c71.7,61.7,144.2,86,194.7,56.7c52-30.1,67.8-110.1,48.8-205.9C751,474.8,804.9,427,804.9,366.1c0-58.7-58.7-109.4-149.9-140.8
		c20.4-99.8,3.1-172.9-49.6-203.3c-50.8-29.3-124.1-3.8-196.9,59.5C332.8,14.4,260.3-6.1,207.6,24.4
		c-50.8,29.4-65.2,105.7-46.7,200.3C71.6,255.8,9.8,307.7,9.8,366.1z" class="st0"></path>
	<path d="M9.8,366.1c0,60,58.6,116.1,151.1,147.7c-18.5,92.9-3.3,167.8,47.3,197c52,30,129.5,9.2,203.1-55.1
		c71.7,61.7,144.2,86,194.7,56.7c52-30.1,67.8-110.1,48.8-205.9C751,474.8,804.9,427,804.9,366.1c0-58.7-58.7-109.4-149.9-140.8
		c20.4-99.8,3.1-172.9-49.6-203.3c-50.8-29.3-124.1-3.8-196.9,59.5C332.8,14.4,260.3-6.1,207.6,24.4
		c-50.8,29.4-65.2,105.7-46.7,200.3C71.6,255.8,9.8,307.7,9.8,366.1z" class="st1"></path>
	<path d="M635.7,256.5c-7.5-2.6-15.1-5-22.7-7.2c1.3-5.1,2.4-10.3,3.5-15.5c17.2-83.5,6-150.8-32.5-173
		c-36.8-21.2-97.1,0.9-157.9,53.9c-6,5.2-11.9,10.6-17.6,16.1c-3.8-3.7-7.7-7.3-11.7-10.8C333,63.5,269.1,39.6,230.7,61.8
		c-36.8,21.3-47.7,84.6-32.2,163.7c1.5,7.8,3.3,15.6,5.2,23.4c-9,2.6-17.8,5.3-26.1,8.2C102.8,283.2,55.1,324,55.1,366.4
		c0,43.8,51.2,87.7,129.1,114.3c6.3,2.1,12.7,4.1,19.1,6c-2.1,8.3-3.9,16.8-5.5,25.2c-14.8,77.8-3.2,139.5,33.5,160.7
		c37.9,21.9,101.5-0.6,163.5-54.8c4.9-4.3,9.8-8.8,14.7-13.6c6.2,6,12.6,11.8,19.1,17.4c60,51.6,119.3,72.5,156,51.3
		c37.9-21.9,50.2-88.3,34.2-169c-1.2-6.2-2.6-12.5-4.2-18.9c4.5-1.3,8.9-2.7,13.1-4.1c81-26.8,133.6-70.2,133.6-114.5
		C761.2,323.9,711.9,282.8,635.7,256.5L635.7,256.5z" class="st0"></path>
	<path d="M618.1,452.3c-3.9,1.3-7.8,2.5-11.9,3.7c-8.9-28.3-21-58.4-35.8-89.5c14.1-30.3,25.7-60,34.4-88.1
		c7.2,2.1,14.2,4.3,21,6.6c65.3,22.5,105.2,55.8,105.2,81.4C731,393.7,688,429.2,618.1,452.3L618.1,452.3z M589.1,509.8
		c7.1,35.7,8.1,68,3.4,93.2c-4.2,22.7-12.7,37.8-23.1,43.8c-22.3,12.9-69.8-3.9-121.2-48c-5.9-5.1-11.8-10.5-17.8-16.2
		c19.9-21.8,39.8-47.1,59.2-75.2c34.1-3,66.4-8,95.6-14.7C586.7,498.5,588,504.2,589.1,509.8L589.1,509.8z M295.8,644.6
		c-21.7,7.7-39.1,7.9-49.5,1.9c-22.3-12.8-31.5-62.4-18.9-129c1.5-7.9,3.2-15.7,5.2-23.4c28.9,6.4,60.9,11,95.2,13.8
		c19.5,27.5,40,52.8,60.6,74.9c-4.4,4.2-8.9,8.4-13.5,12.4C347.5,619.1,320,636,295.8,644.6L295.8,644.6z M194,452.2
		c-34.4-11.8-62.9-27.1-82.4-43.8c-17.5-15-26.4-29.9-26.4-42c0-25.7,38.3-58.5,102.3-80.8c8-2.8,16.1-5.3,24.3-7.6
		c8.8,28.7,20.4,58.8,34.4,89.2c-14.2,30.8-25.9,61.4-34.8,90.4C205.5,455.9,199.7,454.1,194,452.2z M228.1,219.7
		c-13.3-67.8-4.5-119,17.7-131.8c23.6-13.7,75.9,5.8,130.9,54.7c3.5,3.1,7.1,6.4,10.6,9.8c-20.5,22-40.8,47.1-60.1,74.4
		c-33.2,3.1-65,8-94.2,14.6C231.2,234.3,229.5,227,228.1,219.7L228.1,219.7z M532.7,295c-6.9-11.9-14.1-23.7-21.5-35.3
		c22.5,2.8,44.1,6.6,64.4,11.3c-6.1,19.5-13.7,39.9-22.6,60.8C546.5,319.3,539.7,307.1,532.7,295L532.7,295z M408.5,174
		c13.9,15.1,27.8,31.9,41.6,50.2c-27.8-1.3-55.7-1.3-83.5,0C380.3,206,394.3,189.2,408.5,174L408.5,174z M283.5,295.2
		c-6.9,12-13.6,24.2-19.9,36.5c-8.8-20.8-16.3-41.3-22.4-61.1c20.1-4.5,41.6-8.2,64-11C297.6,271.3,290.4,283.1,283.5,295.2z
		 M305.8,475.4c-23.1-2.6-44.9-6.1-65.1-10.5c6.2-20.1,13.9-41.1,22.9-62.3c6.4,12.3,13.1,24.5,20,36.5
		C290.7,451.4,298.1,463.5,305.8,475.4z M409.3,561c-14.3-15.4-28.6-32.5-42.5-50.8c13.5,0.5,27.3,0.8,41.3,0.8
		c14.4,0,28.6-0.3,42.6-0.9C437,528.7,423.1,545.8,409.3,561z M553.3,401.5c9.4,21.5,17.4,42.3,23.7,62.1
		c-20.5,4.7-42.6,8.4-65.9,11.2c7.5-11.8,14.7-23.8,21.7-35.9C539.9,426.6,546.7,414.2,553.3,401.5L553.3,401.5z M506.7,423.9
		c-10.7,18.6-22,36.8-33.9,54.7c-20.9,1.5-42.6,2.3-64.7,2.3c-22,0-43.3-0.7-63.9-2C332,461,320.5,442.7,309.7,424
		c-10.8-18.6-20.8-37.6-30.1-56.9c9.3-19.3,19.3-38.3,30-56.9l0,0c10.7-18.6,22.1-36.8,34.2-54.5c21-1.6,42.5-2.4,64.3-2.4
		c21.9,0,43.4,0.8,64.4,2.4c12,17.7,23.3,35.8,34,54.3c10.8,18.6,20.9,37.4,30.4,56.7C527.6,386.1,517.5,405.2,506.7,423.9
		L506.7,423.9z M568.9,87c23.6,13.6,32.8,68.6,18,140.7c-1,4.7-2,9.4-3.2,14c-29.3-6.8-61.1-11.8-94.4-14.9
		c-19.4-27.6-39.5-52.8-59.7-74.5c5.3-5.1,10.7-10.1,16.2-14.9C498,92.1,546.7,74.2,568.9,87L568.9,87z" class="st1"></path>
	<path d="M408.1,303.4c34.8,0,63.1,28.2,63.1,63.1c0,34.8-28.2,63.1-63.1,63.1c-34.8,0-63.1-28.2-63.1-63.1
		C345.1,331.6,373.3,303.4,408.1,303.4" class="st0"></path>
</g>
</svg>
