<svg xml:space="preserve" style="enable-background:new 0 0 39.6 32;" viewBox="0 0 39.6 32" y="0px" x="0px" xmlns:xlink="http://www.w3.org/1999/xlink" xmlns="http://www.w3.org/2000/svg" id="Layer_1" version="1.1">
<style type="text/css">
	.st0{fill:url(#SVGID_1_);}
	.st1{fill:url(#SVGID_00000041296629179829991750000003262839981660917690_);}
	.st2{fill:url(#SVGID_00000043449937794557218970000004820124665198407830_);}
	.st3{fill:#231F1F;}
</style>
<g>
	<g transform="matrix(.569 0 0 .569 199.451 -82.735)">
		
			<linearGradient gradientTransform="matrix(2.162202e-02 0 0 -2.162202e-02 -479.238 -62.5007)" y2="-11185.4727" x2="7419.1323" y1="-11210.0527" x1="7377.5332" gradientUnits="userSpaceOnUse" id="SVGID_1_">
			<stop style="stop-color:#909CA9" offset="0"></stop>
			<stop style="stop-color:#EDEDEE" offset="1"></stop>
		</linearGradient>
		<path d="M-303.4,163.2l-7.7,2.5l-6.7,2.9l-1.9,0.5c-0.5,0.5-1,0.9-1.5,1.4c-0.6,0.5-1.1,1-1.6,1.3
			c-0.5,0.4-1.2,1.1-1.5,1.5c-0.5,0.7-0.9,1.4-1.1,1.9c-0.3,1-0.2,2,0.5,2.9c0.8,1.2,2.4,2.3,4.2,3.2c0.9,0.4,2.5,0.9,3.7,1.2
			c2,0.5,5.8,1,7.9,1.1c0.4,0,1,0,1,0c0,0,0.4-0.6,0.7-1.4c1.3-2.6,2.2-5.1,2.7-7.2c0.3-1.3,0.5-3,0.7-5c0-0.6,0.1-2.4,0-3.1
			c-0.1-1-0.1-1.9-0.3-2.7c0-0.1,0-0.2,0-0.2c0,0,0.1,0,1-0.3L-303.4,163.2L-303.4,163.2L-303.4,163.2L-303.4,163.2z M-305.1,164.2
			c0.1,0,0.3,1.8,0.3,2.9c0,0.2,0,0.4,0,0.4c0,0-1-0.5-1.6-1c-0.6-0.4-1.7-1.1-1.9-1.2c-0.1,0-0.1,0,0.4-0.2
			C-307.1,164.9-305.2,164.2-305.1,164.2z M-309,165.5c0.1,0,0.2,0.1,0.5,0.3c1.2,0.7,2.8,1.7,3.5,2c0.2,0.1,0.2,0.1-0.3,0.4
			c-1.1,0.7-2.4,1.4-4,2.1c-0.3,0.1-0.5,0.2-0.5,0.2c0,0,0-0.1,0.1-0.3c0.4-1.4,0.6-2.9,0.6-4.1C-309.1,165.6-309.1,165.6-309,165.5
			C-309.1,165.5-309,165.5-309,165.5L-309,165.5z M-309.8,165.8c0,0,0,1.3,0,1.7c-0.1,0.8-0.3,1.6-0.5,2.5c-0.1,0.2-0.1,0.4-0.1,0.4
			c0,0-0.8-0.7-1.1-1c-0.5-0.5-0.8-1-1.1-1.6c-0.1-0.3-0.3-0.8-0.3-0.8C-312.9,167-309.9,165.8-309.8,165.8L-309.8,165.8z
			 M-313.6,167.3C-313.6,167.3-313.6,167.3-313.6,167.3c0,0,0.1,0.1,0.1,0.2c0.2,0.5,0.6,1.2,1,1.7c0.4,0.5,0.9,1.1,1.3,1.4
			c0.1,0.1,0.3,0.2,0.3,0.2c0,0,0,0-0.9,0.4c-1.1,0.4-2.3,0.8-3.7,1.3c-0.3,0.1-0.7,0.2-1,0.3c-0.1,0,0,0,0.1-0.2
			c0.7-1.1,1.7-3.1,2.3-4.6c0.1-0.3,0.2-0.5,0.2-0.6C-313.8,167.4-313.8,167.4-313.6,167.3C-313.7,167.3-313.7,167.3-313.6,167.3
			L-313.6,167.3z M-314.8,167.8c0,0-0.3,0.6-0.6,1.2c-0.6,1.1-1.2,2.2-2,3.5c-0.1,0.2-0.3,0.4-0.3,0.5c0,0,0,0-0.1-0.2
			c-0.2-0.4-0.4-0.9-0.4-1.3c-0.1-0.5-0.1-1.2,0-1.7c0.1-0.4,0.1-0.4,0.2-0.4C-317.2,168.9-314.8,167.8-314.8,167.8L-314.8,167.8z
			 M-304.8,168.2v0.2c0,1.3-0.1,3.1-0.3,4.4c0,0.2-0.1,0.4-0.1,0.4c0,0-0.2,0-0.4-0.1c-0.9-0.3-1.8-0.7-2.7-1.1
			c-0.6-0.3-1.4-0.8-1.4-0.8c0,0,0.2-0.1,0.5-0.3c1.1-0.6,2.2-1.2,3.2-1.9C-305.5,168.8-305,168.4-304.8,168.2L-304.8,168.2
			L-304.8,168.2z M-319.2,169.9c0,0,0,0,0,0.3c0,0.2-0.1,0.4-0.1,0.6c0,0.8,0.1,1.5,0.5,2.3c0.1,0.2,0.2,0.4,0.2,0.4
			c0,0-3.9,1.2-5.1,1.5c-0.4,0.1-0.7,0.2-0.7,0.2c0,0,0,0,0-0.1c0.1-0.9,0.8-2,1.7-2.9c0.6-0.6,1.1-1,1.9-1.5
			C-320.2,170.5-319.3,170-319.2,169.9C-319.2,169.9-319.2,169.9-319.2,169.9L-319.2,169.9z M-310.1,171.6c0,0,0.1,0.1,0.3,0.2
			c1.2,0.7,3,1.4,4.4,1.7l0.1,0l-0.2,0.1c-0.8,0.4-3.3,1.5-5.9,2.5c-0.4,0.1-0.7,0.3-0.8,0.3c-0.1,0-0.1,0-0.1,0s0.1-0.2,0.2-0.5
			c0.7-1.4,1.5-3,1.8-4.2C-310.2,171.7-310.1,171.6-310.1,171.6L-310.1,171.6z M-311.1,171.9c0,0,0,0.1-0.1,0.3
			c-0.5,1.2-1.2,2.6-2,4.1c-0.2,0.4-0.4,0.7-0.4,0.7c0,0-0.2-0.1-0.4-0.2c-1.2-0.8-2.3-1.7-3-2.6l-0.1-0.1l0.5-0.1
			c1.9-0.5,3.5-1.1,5.1-1.8C-311.2,171.9-311.1,171.9-311.1,171.9z M-305.3,173.9C-305.3,173.9-305.3,173.9-305.3,173.9
			c0,0.1-0.3,1.3-0.5,2.2c-0.2,0.7-0.4,1.3-0.7,2.3c-0.1,0.4-0.3,0.8-0.3,0.8s0,0-0.1,0c-1.7-0.3-3.3-0.7-4.7-1.3
			c-0.4-0.2-1-0.4-1-0.5c0,0,0.3-0.2,0.8-0.4c2.6-1.2,5.4-2.5,6.3-3C-305.4,173.9-305.3,173.9-305.3,173.9L-305.3,173.9z
			 M-318.6,174.3c0,0-0.7,1.1-1.8,2.5c-0.4,0.5-0.8,1.1-0.9,1.3c-0.2,0.2-0.4,0.6-0.5,0.8l-0.2,0.4l-0.3-0.2
			c-0.3-0.3-0.8-0.8-1.1-1.1c-0.5-0.6-0.8-1.3-1-1.9c-0.1-0.3-0.1-0.4,0-0.4c0.1,0,1.6-0.4,3.1-0.7c0.8-0.2,1.7-0.4,2.1-0.5
			C-318.8,174.4-318.6,174.3-318.6,174.3L-318.6,174.3z M-317.8,174.6l0.2,0.2c0.8,0.9,1.7,1.6,2.7,2.2c0.2,0.1,0.3,0.2,0.3,0.2
			c0,0-3.6,1.3-5.2,1.9c-0.9,0.3-1.7,0.6-1.7,0.6c0,0-0.1,0-0.1-0.1l-0.1-0.1l0.2-0.2c0.5-0.8,1.2-1.7,2.7-3.5L-317.8,174.6
			L-317.8,174.6z M-313.2,177.9c0,0,0.3,0.1,0.6,0.2c0.8,0.3,1.4,0.5,2.2,0.7c1,0.2,2.4,0.5,3.3,0.6c0.1,0,0.2,0,0.2,0
			c0,0-0.9,0.3-1.5,0.5c-1,0.3-4,1.2-6.5,1.9c-0.5,0.1-0.9,0.2-0.9,0.2c-0.1,0-0.2,0-0.2-0.1c0,0,0.1-0.2,0.3-0.4
			c0.8-1,1.7-2.1,2.4-3.2C-313.3,178.2-313.2,177.9-313.2,177.9L-313.2,177.9z M-314.2,178c0,0-0.4,0.7-1.1,1.8
			c-0.3,0.5-0.6,1-0.8,1.2c-0.1,0.2-0.3,0.5-0.4,0.6l-0.2,0.3l-0.1,0c-0.2-0.1-1.7-0.6-2.1-0.7c-0.5-0.2-1-0.4-1.4-0.6
			c-0.5-0.2-1-0.6-1-0.6c0,0,0.8-0.2,1.8-0.5c2.5-0.7,4-1.1,4.9-1.4C-314.4,178-314.2,177.9-314.2,178L-314.2,178z M-307,179.7
			L-307,179.7c0,0.1-0.9,2.7-1.3,3.5c-0.1,0.2-0.1,0.2-0.1,0.2c-0.1,0-1.5-0.2-2.3-0.3c-1.4-0.2-3.9-0.6-4.5-0.8l-0.1,0l0.9-0.2
			c1.9-0.4,2.8-0.6,3.7-0.9c1.1-0.3,2.3-0.8,3.4-1.3C-307.2,179.7-307,179.7-307,179.7L-307,179.7z" class="st0"></path>
		
			<linearGradient gradientTransform="matrix(2.162202e-02 0 0 -2.162202e-02 -479.238 -62.5007)" y2="-9779.1846" x2="7413.8691" y1="-9779.1846" x1="7380.3975" gradientUnits="userSpaceOnUse" id="SVGID_00000134226283623786549210000012021638659079190953_">
			<stop style="stop-color:#939FAB" offset="0"></stop>
			<stop style="stop-color:#DCDEE1" offset="1"></stop>
		</linearGradient>
		<path d="M-311.3,145.3c-0.1,0-2.2,0.7-3.5,1.3
			c-1.8,0.7-3.2,1.4-4,2c-0.3,0.2-0.7,0.6-0.8,0.8c0,0.1,0,0.1,0,0.2l0.8,0.7l1.9,0.6l4.4,0.8l5,0.9l0.1-0.4c0,0,0,0,0,0l-0.7-0.1
			l-0.1-0.2c-0.7-1.2-1.4-2.7-1.9-3.7c-0.3-0.8-0.7-1.7-0.8-2.3C-311.2,145.3-311.2,145.3-311.3,145.3L-311.3,145.3L-311.3,145.3
			L-311.3,145.3z M-311.4,145.6L-311.4,145.6c0,0,0,0.2,0.1,0.4c0.1,0.8,0.3,1.6,0.6,2.4c0.2,0.6,0.2,0.6,0,0.5
			c-0.6-0.2-3.2-0.6-5.2-0.9c-0.3,0-0.6-0.1-0.6-0.1c0,0,1.4-0.8,2-1C-313.7,146.5-311.6,145.6-311.4,145.6z M-317,148.2l0.2,0.1
			c1.2,0.4,4.3,1,6,1.1c0.2,0,0.4,0,0.4,0c0,0-0.2,0.1-0.4,0.2c-0.8,0.4-1.7,0.9-2.4,1.3c-0.2,0.1-0.4,0.2-0.4,0.2c0,0-0.1,0-0.3,0
			l-0.2,0l-0.6-0.6c-1-1-1.8-1.8-2.1-2L-317,148.2z M-317.2,148.4l0.8,1c0.4,0.6,0.9,1.1,1,1.2c0.1,0.1,0.2,0.2,0.2,0.2
			c0,0-1.2-0.2-1.8-0.3c-0.6-0.1-0.9-0.2-1.3-0.3l-0.3-0.1V150C-318.6,149.6-318.1,149-317.2,148.4
			C-317.3,148.4-317.2,148.4-317.2,148.4z M-310.3,149.8c0,0,0.1,0.1,0.1,0.2c0.2,0.4,0.8,1.6,1,1.8c0,0.1,0.1,0.1-0.7-0.1
			c-2-0.3-2.6-0.4-2.6-0.4c0,0,0.1,0,0.1-0.1c0.6-0.3,1.2-0.8,1.8-1.2C-310.4,149.9-310.3,149.8-310.3,149.8
			C-310.3,149.8-310.3,149.8-310.3,149.8z" style="fill:url(#SVGID_00000134226283623786549210000012021638659079190953_);"></path>
		
			<radialGradient gradientUnits="userSpaceOnUse" gradientTransform="matrix(-2.076344e-02 -3.118897e-03 -6.307883e-03 4.152689e-02 -1301.4972 -1510.8594)" r="44.4403" cy="35806.6641" cx="-58708.1016" id="SVGID_00000103970080662085151380000008708497315619716008_">
			<stop style="stop-color:#EE352C" offset="0"></stop>
			<stop style="stop-color:#A91D22" offset="1"></stop>
		</radialGradient>
		<path d="M-319.6,149.3c0,0-0.1,0.2,0,0.5
			c0.1,0.2,0.3,0.4,0.5,0.6c0,0,2.6,2.5,2.9,2.9c1.4,1.6,2,3.3,2.1,5.5c0,1.4-0.2,2.7-0.9,4.2c-1.2,2.6-3.8,5.5-7.7,8.8l0.6-0.2
			c0.4-0.3,0.9-0.6,2.1-1.2c2.7-1.5,5.8-2.9,9.6-4.3c5.4-2,14.4-4.4,19.5-5.2l0.5-0.1l-0.1-0.1c-0.5-0.7-0.8-1.2-1.2-1.6
			c-1.1-1.4-2.5-2.5-4.1-3.4c-2.3-1.3-5.2-2.3-9-3c-0.7-0.1-2.2-0.4-3.5-0.6c-2.7-0.4-4.4-0.7-6.3-1c-0.7-0.1-1.7-0.3-2.4-0.4
			c-0.3-0.1-1-0.2-1.5-0.4C-318.9,150-319.5,149.8-319.6,149.3L-319.6,149.3z M-318.1,150.8c0,0,0.1,0,0.2,0.1
			c0.2,0.1,0.5,0.2,0.8,0.3c0.3,0.1,0.5,0.1,0.8,0.2c0.3,0.1,0.6,0.2,0.6,0.2c0,0,0.6,1.9,0.8,2.6c0.1,0.3,0.1,0.5,0.1,0.5
			c0,0-0.1-0.1-0.1-0.2c-0.7-1.2-1.8-2.4-3-3.4C-318,150.9-318.1,150.8-318.1,150.8z M-315.2,151.6c0,0,0.2,0,0.3,0.1
			c1,0.2,2.8,0.6,3.9,0.7c0.2,0,0.3,0.1,0.3,0.1c0,0-0.1,0.1-0.2,0.1c-0.2,0.1-1,0.6-1.2,0.7c-0.6,0.4-1.2,0.9-1.6,1.3
			c-0.2,0.2-0.3,0.3-0.3,0.3s0-0.1-0.1-0.2c-0.2-0.8-0.6-2-1-2.8C-315.2,151.7-315.3,151.6-315.2,151.6
			C-315.3,151.6-315.3,151.6-315.2,151.6L-315.2,151.6z M-310.2,152.5c0,0,0.1,0.2,0.2,0.6c0.2,0.8,0.3,1.8,0.3,2.7
			c0,0.2,0,0.5,0,0.5l0,0.1l-0.3-0.1c-0.6-0.2-1.6-0.5-2.5-0.7c-0.5-0.1-0.9-0.3-0.9-0.3c0,0,0.7-0.8,1-1
			C-311.9,153.7-310.3,152.5-310.2,152.5L-310.2,152.5z M-309.8,152.6c0,0,2.4,0.4,3.5,0.6c0.8,0.2,2,0.4,2,0.4c0,0-0.1,0.1-0.5,0.3
			c-1.5,0.7-2.7,1.3-3.8,2.1c-0.3,0.2-0.5,0.4-0.5,0.4c0,0,0-0.2,0-0.4c0-1.1-0.2-2.2-0.6-3.2C-309.8,152.7-309.8,152.6-309.8,152.6
			z M-303.6,153.8c0,0-0.1,0.5-0.1,0.8c-0.2,0.9-0.8,2.1-1.5,3.4c-0.1,0.2-0.2,0.4-0.2,0.4c0,0-0.2-0.1-0.3-0.2
			c-0.7-0.4-1.4-0.8-2.3-1.1c-0.2-0.1-0.4-0.2-0.4-0.2c0,0,1.8-1.3,2.8-1.9C-304.9,154.5-303.7,153.8-303.6,153.8z M-303.2,153.9
			c0.1,0,1.1,0.3,1.7,0.5c1.4,0.4,2.9,1,4,1.4l0.4,0.2l-0.3,0.1c-2.5,0.6-4.6,1.2-6.7,2.1c-0.2,0.1-0.3,0.1-0.3,0.1s0-0.1,0.1-0.3
			c0.6-1.3,1-2.7,1.1-3.9C-303.2,153.9-303.2,153.9-303.2,153.9L-303.2,153.9z M-313.7,156.3c0,0,0.8,0.2,1.3,0.3
			c0.7,0.2,2.1,0.7,2.1,0.7c0,0-0.2,0.1-0.3,0.3c-0.8,0.6-1.5,1.3-2.4,2.1c-0.3,0.2-0.5,0.5-0.5,0.5c0,0,0,0,0-0.1
			c0.1-1,0.1-2.2-0.1-3.5C-313.7,156.4-313.7,156.3-313.7,156.3z M-296.8,156.3c0,0-0.4,0.6-0.6,1c-0.3,0.5-0.9,1.2-2,2.6
			c-0.6,0.8-1.3,1.6-1.5,1.9c-0.2,0.3-0.4,0.5-0.4,0.5c0,0-0.1-0.1-0.2-0.2c-0.6-1-1.4-1.8-2.4-2.6c-0.2-0.1-0.4-0.3-0.4-0.3
			c-0.1,0-0.1-0.1-0.1-0.1c0,0,1-0.4,1.7-0.7c1.3-0.5,3.1-1.2,4.4-1.6C-297.5,156.5-296.8,156.3-296.8,156.3L-296.8,156.3z
			 M-296.3,156.4c0,0,0.2,0.1,0.3,0.2c1.4,0.8,2.8,1.8,3.9,2.9c0.3,0.3,1.1,1.1,1.1,1.1c0,0-0.3,0-0.6,0c-2.4,0.2-5.6,0.7-8.6,1.4
			c-0.2,0-0.4,0.1-0.4,0.1c0,0,0.2-0.2,0.5-0.5c1.8-1.7,2.6-2.8,3.5-4.7C-296.4,156.7-296.3,156.4-296.3,156.4
			C-296.3,156.4-296.3,156.4-296.3,156.4L-296.3,156.4z M-309.3,157.7c0.1,0,0.8,0.4,1.4,0.7c0.5,0.3,1.3,0.7,1.3,0.7
			c0,0-0.3,0.2-0.6,0.3c-1.1,0.5-2,1.1-3,1.7c-0.3,0.2-0.5,0.3-0.5,0.3c0,0,0,0,0.1-0.3c0.5-1,0.9-2.1,1.2-3.2
			C-309.3,157.8-309.3,157.7-309.3,157.7L-309.3,157.7z M-310,157.9c0,0-0.2,0.7-0.3,1.1c-0.2,0.7-0.6,1.7-1,2.4
			c-0.1,0.2-0.2,0.4-0.3,0.5l-0.1,0.2l-0.3-0.3c-0.4-0.4-0.7-0.6-1.1-0.8c-0.2-0.1-0.3-0.2-0.3-0.2c0,0,1-0.9,1.8-1.6
			C-311.2,158.8-310,157.9-310,157.9L-310,157.9z M-305.4,159.8l0.3,0.2c0.6,0.4,1.4,1,2,1.5c0.3,0.3,1,0.8,1.1,1l0.1,0.1l-0.5,0.1
			c-2.7,0.7-4.7,1.4-7.1,2.3c-0.3,0.1-0.5,0.2-0.5,0.2c0,0-0.1,0,0.5-0.5c1.5-1.4,2.9-3,3.9-4.5L-305.4,159.8L-305.4,159.8z
			 M-306.6,160.1c0,0-0.8,1.1-1.3,1.8c-0.6,0.8-1.6,2-2.3,2.8c-0.3,0.3-0.5,0.6-0.5,0.6c0,0,0-0.1,0-0.2c0-0.7-0.2-1.4-0.5-2.1
			c-0.1-0.3-0.2-0.3-0.1-0.4c0.1-0.1,1.8-1.1,2.9-1.6C-307.7,160.6-306.6,160.1-306.6,160.1L-306.6,160.1z M-313.9,161.9
			c0,0,0.2,0.1,0.3,0.2c0.4,0.2,0.7,0.4,1,0.7c0,0-0.1,0.1-0.3,0.3c-0.5,0.4-1.4,1-1.9,1.4c-0.5,0.4-0.5,0.4-0.5,0.3
			c0.4-0.6,0.6-0.9,0.8-1.3c0.2-0.4,0.4-0.8,0.5-1.2C-314,162-314,161.9-313.9,161.9L-313.9,161.9z M-312,163.4c0,0,0.1,0,0.2,0.3
			c0.3,0.5,0.6,1.2,0.6,1.7l0,0.1l-0.8,0.3c-1.4,0.5-2.7,1.1-3.6,1.5c-0.2,0.1-0.7,0.3-1,0.5c-0.3,0.1-0.5,0.3-0.5,0.2
			c0,0,0.2-0.1,0.4-0.3c1.7-1.3,3.2-2.6,4.4-4C-312.1,163.5-312,163.4-312,163.4L-312,163.4L-312,163.4z M-312.9,163.6
			c0,0-0.6,0.8-1.1,1.2c-1.1,1.1-2.2,2-3.6,2.9c-0.2,0.1-0.3,0.2-0.3,0.2c0,0,0,0,0.6-0.7c0.4-0.4,0.7-0.8,1-1.2
			c0.2-0.3,0.3-0.3,0.6-0.6C-314.9,164.9-312.9,163.6-312.9,163.6z" style="fill:url(#SVGID_00000103970080662085151380000008708497315619716008_);"></path>
	</g>
	<path d="M7.1,24c-0.1,0-0.1,0-0.2,0c-1.2,0.1-2.1,0.6-2.5,1.7c-0.4,1-0.4,2.2,0,3.2c0.4,0.9,1.1,1.4,2.3,1.6
		c0.2,0,0.4,0.2,0.9,0.7l0.6,0.7h1.1l-0.7-0.7c-0.4-0.4-0.7-0.7-0.7-0.8s0.2-0.1,0.3-0.2c0.6-0.2,1.1-0.6,1.5-1.4
		c0.3-0.6,0.3-0.8,0.4-1.5C10.1,25.4,9,24,7.1,24L7.1,24L7.1,24z M8.1,29.6c-0.5,0.3-1.3,0.3-1.8,0.1c-0.5-0.2-1-0.7-1.2-1.3
		c-0.2-0.7-0.2-1.9,0.1-2.4c0.5-0.9,1.1-1.3,1.9-1.3c1.3,0,2,0.8,2.1,2.3C9.3,28.3,8.9,29.2,8.1,29.6L8.1,29.6z M26.6,25.9
		c-0.5,0-0.8,0.2-1,0.5l-0.2,0.3v-0.7h-0.8v4.4h0.8V29c0-1.3,0-1.4,0.2-1.8c0.2-0.5,0.7-0.7,1.1-0.6l0.3,0.1v-0.8L26.6,25.9
		L26.6,25.9L26.6,25.9z M22,25.8c-0.2,0-0.3,0-0.5,0.1c-1,0.3-1.6,1.3-1.6,2.3c0,0.9,0.2,1.3,0.6,1.7c0.9,0.7,1.6,0.8,2.7,0.4
		c0.2-0.1,0.4-0.2,0.4-0.2v-0.7l-0.4,0.2c-0.8,0.4-1.5,0.4-2-0.1c-0.3-0.3-0.5-0.7-0.5-1.2h3.1v-0.6C23.8,26.6,23.1,25.8,22,25.8
		L22,25.8L22,25.8z M20.8,27.8c0,0,0.1-0.8,0.5-1.1c0.2-0.1,0.4-0.2,0.7-0.2s0.5,0.1,0.7,0.2c0.4,0.3,0.5,1,0.5,1L20.8,27.8
		L20.8,27.8L20.8,27.8L20.8,27.8z M2,27c-0.8-0.5-1.2-0.9-1.2-1.3c0.1-1.2,1.6-1,2.4-0.6l0-0.8c0,0-0.5-0.2-1.1-0.2
		c-1,0-1.7,0.3-2,1c-0.4,1,0,1.7,1.4,2.6c0.8,0.5,1.2,0.9,1.2,1.3c0,0.9-1.1,1.2-2.2,0.7C0.2,29.5,0,29.4,0,29.4c0,0.3,0,0.9,0,0.9
		s0.3,0.1,0.9,0.2c1.3,0.3,2.5-0.4,2.6-1.3C3.6,28.2,3.2,27.7,2,27L2,27z M33.5,25.8c-0.2,0-0.3,0-0.5,0.1c-1,0.3-1.6,1.3-1.6,2.3
		c0,0.9,0.2,1.3,0.6,1.7c0.9,0.7,1.6,0.8,2.7,0.4c0.2-0.1,0.4-0.2,0.4-0.2v-0.7l-0.4,0.2c-0.8,0.4-1.5,0.4-2-0.1
		c-0.3-0.3-0.5-0.7-0.5-1.2h3.1v-0.6C35.3,26.6,34.6,25.8,33.5,25.8L33.5,25.8L33.5,25.8z M32.2,27.8c0,0,0.1-0.8,0.5-1.1
		c0.2-0.1,0.4-0.2,0.7-0.2s0.5,0.1,0.7,0.2c0.4,0.3,0.5,1.1,0.5,1.1L32.2,27.8L32.2,27.8L32.2,27.8z M17.9,27
		c-0.8-0.5-1.2-0.9-1.2-1.3c0.1-1.2,1.6-1,2.4-0.6l0-0.8c0,0-0.5-0.2-1.1-0.2c-1,0-1.7,0.3-2,1c-0.4,1,0,1.7,1.4,2.6
		c0.8,0.5,1.2,0.9,1.2,1.3c0,0.9-1.1,1.2-2.2,0.7c-0.2-0.1-0.4-0.2-0.4-0.2c0,0.3,0,0.9,0,0.9s0.3,0.1,0.9,0.2
		c1.3,0.3,2.5-0.3,2.6-1.3C19.5,28.2,19.2,27.7,17.9,27L17.9,27L17.9,27z M38.1,25.9c-0.5,0-0.8,0.2-1,0.5l-0.2,0.3v-0.7h-0.8v4.4
		h0.8V29c0-1.3,0-1.4,0.2-1.8c0.2-0.5,0.7-0.7,1.1-0.6l0.3,0.1v-0.8L38.1,25.9L38.1,25.9z M11.7,27v-2.8H11v6.3h3.3v-0.7h-2.5
		L11.7,27L11.7,27z M29.9,27.8l-0.6,1.7l-0.6-1.7L28,25.9h-0.8c0.5,1.5,1.1,3,1.7,4.4c0.2,0,0.5,0,0.7,0l0.9-2.2l0.9-2.2h-0.8
		C30.6,25.9,30.3,26.8,29.9,27.8L29.9,27.8L29.9,27.8z M13.6,22.4c0.1,0,0.2,0,0.3-0.1C14,22.2,14,22.1,14,22c0-0.1,0-0.2-0.1-0.3
		c-0.1-0.1-0.2-0.1-0.3-0.1c-0.1,0-0.2,0-0.3,0.1c-0.1,0.1-0.1,0.2-0.1,0.3c0,0.1,0,0.2,0.1,0.3C13.3,22.4,13.4,22.4,13.6,22.4
		L13.6,22.4L13.6,22.4z M13.3,21.7c0.1-0.1,0.2-0.1,0.3-0.1c0.1,0,0.2,0,0.3,0.1c0.1,0.1,0.1,0.2,0.1,0.3c0,0.1,0,0.2-0.1,0.3
		c-0.1,0.1-0.2,0.1-0.3,0.1c-0.1,0-0.2,0-0.3-0.1c-0.1-0.1-0.1-0.2-0.1-0.3C13.2,21.9,13.2,21.8,13.3,21.7z M13.5,22L13.5,22
		c0.1,0,0.1,0,0.2,0.1l0.1,0.1h0.1l-0.1-0.2c0-0.1-0.1-0.1-0.1-0.1c0,0,0.1,0,0.1-0.1c0,0,0-0.1,0-0.1s0-0.1,0-0.1c0,0-0.1,0-0.2,0
		h-0.2v0.6h0.1L13.5,22L13.5,22L13.5,22z M13.5,21.8L13.5,21.8c0.1,0,0.2,0,0.2,0c0,0,0,0,0,0.1c0,0.1,0,0.1-0.1,0.1h-0.1L13.5,21.8
		L13.5,21.8L13.5,21.8z M0.5,22c0-0.2,0-0.3,0-0.4h0c0,0.1,0,0.2,0.1,0.2l0.8,1.7h0.1l0.7-1.7c0,0,0-0.1,0.1-0.2h0
		c0,0.2,0,0.3,0,0.4v1.5h0.3v-2.2H2.2l-0.7,1.5c0,0.1-0.1,0.2-0.1,0.3h0c0-0.1,0-0.2-0.1-0.3l-0.7-1.6H0.2v2.2h0.2L0.5,22
		C0.5,22,0.5,22,0.5,22z M3,22h0.2v1.4H3C3,23.4,3,22,3,22z M3.2,21.5c0,0,0.1,0,0.1,0c0,0,0-0.1,0-0.1s0-0.1,0-0.1c0,0-0.1,0-0.1,0
		c0,0-0.1,0-0.1,0c0,0,0,0.1,0,0.1c0,0,0,0.1,0,0.1C3.1,21.5,3.1,21.5,3.2,21.5L3.2,21.5z M4.9,23.4v-0.2c-0.1,0.1-0.3,0.1-0.4,0.1
		c-0.2,0-0.3-0.1-0.4-0.2C4,23,3.9,22.9,3.9,22.7c0-0.2,0-0.3,0.2-0.5c0.1-0.1,0.2-0.2,0.4-0.2c0.1,0,0.3,0,0.4,0.1v-0.3
		c-0.1-0.1-0.2-0.1-0.4-0.1c-0.3,0-0.5,0.1-0.6,0.2c-0.1,0.2-0.2,0.4-0.2,0.6c0,0.2,0.1,0.4,0.2,0.6c0.1,0.2,0.3,0.2,0.5,0.2
		C4.6,23.5,4.7,23.5,4.9,23.4z M5.5,22.6c0-0.2,0-0.3,0.1-0.4c0.1-0.1,0.2-0.1,0.3-0.1c0.1,0,0.1,0,0.2,0v-0.3c0,0-0.1,0-0.2,0
		c-0.1,0-0.2,0-0.2,0.1c-0.1,0.1-0.1,0.2-0.2,0.3h0v-0.3H5.2v1.6h0.3L5.5,22.6L5.5,22.6z M7,23.5c0.2,0,0.4-0.1,0.6-0.2
		c0.1-0.2,0.2-0.4,0.2-0.6c0-0.3-0.1-0.5-0.2-0.6c-0.1-0.1-0.3-0.2-0.6-0.2c-0.2,0-0.4,0.1-0.6,0.2c-0.2,0.2-0.2,0.4-0.2,0.6
		c0,0.2,0.1,0.4,0.2,0.6C6.5,23.4,6.7,23.5,7,23.5L7,23.5L7,23.5z M6.6,22.2c0.1-0.1,0.2-0.2,0.4-0.2c0.2,0,0.3,0,0.4,0.2
		c0.1,0.1,0.1,0.3,0.1,0.5c0,0.2,0,0.3-0.1,0.4c-0.1,0.1-0.2,0.2-0.4,0.2c-0.2,0-0.3-0.1-0.4-0.2c-0.1-0.1-0.1-0.3-0.1-0.4
		C6.4,22.5,6.5,22.3,6.6,22.2z M8.8,23.4C8.9,23.3,9,23.2,9,23c0-0.1,0-0.2-0.1-0.3c-0.1-0.1-0.2-0.1-0.3-0.2
		c-0.1,0-0.2-0.1-0.2-0.1c0,0-0.1-0.1-0.1-0.2c0-0.1,0-0.1,0.1-0.2c0,0,0.1-0.1,0.2-0.1c0.1,0,0.3,0,0.4,0.1v-0.3
		c-0.1,0-0.2-0.1-0.3-0.1c-0.2,0-0.3,0-0.4,0.1C8.1,22.1,8,22.2,8,22.3c0,0.1,0,0.2,0.1,0.3c0.1,0.1,0.2,0.1,0.3,0.2
		c0.1,0.1,0.2,0.1,0.3,0.1c0,0,0.1,0.1,0.1,0.2c0,0.1-0.1,0.2-0.3,0.2c-0.2,0-0.3,0-0.4-0.2v0.3c0.1,0.1,0.2,0.1,0.4,0.1
		C8.6,23.5,8.7,23.4,8.8,23.4L8.8,23.4L8.8,23.4z M10.1,21.8c-0.2,0-0.4,0.1-0.6,0.2c-0.2,0.2-0.2,0.4-0.2,0.6
		c0,0.2,0.1,0.4,0.2,0.6c0.1,0.2,0.3,0.2,0.6,0.2c0.2,0,0.4-0.1,0.6-0.2s0.2-0.4,0.2-0.6c0-0.3-0.1-0.5-0.2-0.6
		C10.5,21.9,10.3,21.8,10.1,21.8L10.1,21.8L10.1,21.8z M10.5,22.7c0,0.2,0,0.3-0.1,0.4c-0.1,0.1-0.2,0.2-0.4,0.2
		c-0.2,0-0.3-0.1-0.4-0.2c-0.1-0.1-0.1-0.3-0.1-0.4c0-0.2,0-0.4,0.2-0.5C9.8,22.1,9.9,22,10,22s0.3,0,0.4,0.2
		C10.5,22.3,10.5,22.5,10.5,22.7L10.5,22.7L10.5,22.7z M11.2,23.5h0.3v-1.4h0.4v-0.2h-0.4v-0.2c0-0.2,0.1-0.3,0.3-0.3
		c0.1,0,0.1,0,0.2,0v-0.2c0,0-0.1,0-0.2,0c-0.1,0-0.2,0-0.3,0.1c-0.1,0.1-0.2,0.2-0.2,0.4v0.3H11v0.2h0.3L11.2,23.5L11.2,23.5z
		 M12.3,23c0,0.3,0.1,0.5,0.4,0.5c0.1,0,0.2,0,0.2-0.1v-0.2c0,0-0.1,0-0.2,0c-0.1,0-0.1,0-0.2-0.1c0,0-0.1-0.1-0.1-0.2v-0.9h0.4
		v-0.2h-0.4v-0.5c-0.1,0-0.2,0.1-0.3,0.1v0.4H12v0.2h0.3L12.3,23L12.3,23z M39.4,25.9c-0.1-0.1-0.2-0.1-0.3-0.1
		c-0.1,0-0.2,0-0.3,0.1c-0.1,0.1-0.1,0.2-0.1,0.3c0,0.1,0,0.2,0.1,0.3c0.1,0.1,0.2,0.1,0.3,0.1c0.1,0,0.2,0,0.3-0.1
		c0.1-0.1,0.1-0.2,0.1-0.3C39.6,26.1,39.5,26,39.4,25.9L39.4,25.9z M39.4,26.5c-0.1,0.1-0.2,0.1-0.3,0.1c-0.1,0-0.2,0-0.3-0.1
		s-0.1-0.2-0.1-0.3c0-0.1,0-0.2,0.1-0.3c0.1-0.1,0.2-0.1,0.3-0.1c0.1,0,0.2,0,0.3,0.1s0.1,0.2,0.1,0.3
		C39.5,26.4,39.5,26.5,39.4,26.5z M39.2,26.3c0,0,0.1,0,0.1-0.1c0,0,0-0.1,0-0.1c0,0,0-0.1,0-0.1c0,0-0.1,0-0.2,0h-0.2v0.6H39v-0.2
		h0c0,0,0.1,0,0.1,0.1l0.1,0.1h0.1l-0.1-0.2C39.2,26.3,39.2,26.3,39.2,26.3L39.2,26.3L39.2,26.3z M39.1,26.2L39.1,26.2L39,26h0.1
		c0,0,0.1,0,0.1,0c0,0,0,0,0,0.1C39.2,26.2,39.2,26.2,39.1,26.2L39.1,26.2L39.1,26.2z M25,21.8L25,21.8l0.1-0.6h0.2v-0.1h-0.4v0.1
		H25L25,21.8L25,21.8z M25.4,21.4c0-0.1,0-0.1,0-0.1C25.4,21.3,25.4,21.3,25.4,21.4l0.2,0.4h0l0.2-0.5c0,0,0,0,0-0.1
		c0,0,0,0.1,0,0.1v0.4H26v-0.6h-0.1l-0.2,0.4c0,0,0,0,0,0.1h0c0,0,0,0,0-0.1l-0.2-0.4h-0.1v0.6h0.1L25.4,21.4L25.4,21.4L25.4,21.4z" class="st3"></path>
</g>
</svg>
